<svg xmlns="http://www.w3.org/2000/svg" width="79" height="65" fill="none">
  <path fill="#EE2424" fill-rule="evenodd" d="m38.882 5.825.29.146c.09-.049.292-.1.292-.22 0-.09-.15-.217-.291-.217-.215 0-.25.123-.291.291Z" clip-rule="evenodd"/>
  <path fill="#EE2424" fill-rule="evenodd" d="m40.118 6.262-.36-.36c-.17.113-.38.29-.656.29-.408 0-.412-.258-.8-.29.09.35.408.517.796.592.581.109.622-.126 1.02-.232Z" clip-rule="evenodd"/>
  <path fill="#EE2424" fill-rule="evenodd" d="M39.974 7.136c.13-.09.128-.146.291-.146h.219c.395 0 .582.27.582.655 0 .277-.252.729-.51.729h-.218c-.46 0-.22-.917-.361-1.238h-.003Zm-2.621-.656.146.438c.254-.06.245-.146.509-.146h.36c.168 0 .219.05.219.218v.073c0 .284-.346.43-.671.443l.185.475.63-.336c.139.207.361.386.361.729 0 .376-.302.582-.654.582h-.146c-.653 0-1.257-.811-1.31-1.456h-.22c.075.887.745 1.82 1.676 1.82h.145c.479 0 .947-.255.947-.728v-.073c0-.292-.245-.576-.36-.8.162-.039.167-.074.36-.074h.073c.54 0-.198 1.165.727 1.165.618 0 .947-.41.947-1.019v-.36c0-1.05-1.328-1.155-1.547-.341l-.929.34c.04-.163.073-.167.073-.36v-.073c0-.313-.54-.655-.873-.655h-.073c-.2-.004-.399.044-.575.138Z" clip-rule="evenodd"/>
  <path fill="#FEFCF4" fill-rule="evenodd" d="M40.484 6.99h-.218c-.164 0-.16.057-.292.146.144.32-.096 1.238.361 1.238h.22c.257 0 .508-.451.508-.729.003-.387-.184-.655-.58-.655Z" clip-rule="evenodd"/>
  <path fill="#F57F20" fill-rule="evenodd" d="m28.979 11.286 1.675-1.82V4.877h-1.749l.074 6.408ZM48.275 10.048l1.162 1.305.585-.286V4.66h-1.747v5.388Z" clip-rule="evenodd"/>
  <path fill="#EEEDEE" fill-rule="evenodd" d="M41.94 10.999c.205-.017.29 0 .29-.218v-.296c-.323.035-.29.139-.29.514Z" clip-rule="evenodd"/>
  <path fill="#E0E0DE" fill-rule="evenodd" d="m40.018 10.987.264.005-.138-.448-.126.443Z" clip-rule="evenodd"/>
  <path fill="#ECB32B" fill-rule="evenodd" d="M68.443 17.183c0-1.138-.45-3.037-.825-3.834-.646-1.371-1.099-1.655-1.912-2.748-.654-.876-1.575-1.561-2.444-2.216-.87-.654-1.757-1.48-2.61-2.05.16.687 1.125 2.467 1.481 3.179.541 1.087 1.035 1.999 1.851 2.81.796.792 1.642 1.429 2.366 2.293.711.846 1.397 1.766 2.093 2.566Z" clip-rule="evenodd"/>
  <path fill="#1F2020" fill-rule="evenodd" d="M38.736 10.999c-.331-.222-.654-.837-1.092-.874v1.235c0 .202.056.174.218.218v-.947c.331.222.654.837 1.104.873l-.085-1.456h-.145v.95Z" clip-rule="evenodd"/>
  <path fill="#121212" fill-rule="evenodd" d="M41.94 10.999c0-.37-.033-.474.29-.51v.292c0 .22-.085.2-.29.218Zm-.145.721.109-.594.185.649.422.096-.28-.806c.217-.018.36-.053.36-.292V10.7c0-.341-.599-.429-.946-.436.006.735-.504 1.444.15 1.456ZM40.144 10.548l.138.45h-.264l.126-.443v-.007Zm-.607.961c.483-.053.107-.36.51-.36h.36v.21c0 .168.05.219.219.219h.213l-.432-1.458c-.418.036-.783 1.01-.87 1.385v.004Z" clip-rule="evenodd"/>
  <path fill="#CFD0D0" fill-rule="evenodd" d="M43.544 11.505c0 .148.15.133.291.145v-.437c-.084.056-.29.17-.29.292Z" clip-rule="evenodd"/>
  <path fill="#121212" fill-rule="evenodd" d="M36.988 11.65a4.601 4.601 0 0 1-.218-1.092v-.291h-.36c0 .36.06.569.117.901.107.655-.146.532.461.482ZM35.173 10.572l-.14.948-.083-.015c-.282-.207-.352-.619-.818-.653l.162 1.162v.291l.251-.006-.162-.883.74.675.118-.878.128.007.236.649.385-.01-.602-1.37-.215.082Z" clip-rule="evenodd"/>
  <path fill="#fff" fill-rule="evenodd" d="M56.502 21.334h-.218c-.811 0-1.675-.696-1.675-1.384v-.727c0-.571.872-1.384 1.457-1.384h.436c.902 0 1.602.87 1.602 1.82v.073c0 .801-.8 1.602-1.602 1.602Zm-32.25-1.602h.218v.146h-.218c-.969 0-.604-.129-.896.462l.598.571-.76-.266-.342.255.203.747-.483-.532c-.961.224-.285.36-.708.87l-.1-.775-.488-.151-.488.406.253-.568c-.18-.12-.276-.36-.36-.36-.349 0-.451.188-.823.185l.693-.408-.09-.515-.876-.137v-.066l.88-.078.156-.46-.517-.519.662.263.36-.385-.221-.73.501.595.49-.084.237-.72c0 .72-.023.732.601.89l.589-.587-.387.79c.163.11.256.292.436.292.22 0 .47-.159.743-.2l-.666.563.071.424.727.09.005-.008Zm5.46-5.607c.167 0 .085.026.291.073.047.196.073.137.073.291 0 .266-.2.583-.437.583-.201 0-.175-.056-.218-.218h.218c.243 0 .214-.131.218-.36h-.727c-.197 0-.291-.195-.291-.361 0-.294.157-.51.436-.51.132 0 .117.111.146.218h-.36c.013.613.201.292.655.292l-.004-.008Zm17.839.073.917-1.19.08.02.196 1.338.48-.673.23.076-.892 1.172-.192-.157-.09-1.237c-.258.19-.342.623-.728.656l-.001-.005Zm-4.024-.3.438.222-.057.09-.492-.146-.142.325.396.325-.055.069-.727-.366.586-1.245.747.4-.037.102-.498-.132-.162.356h.003Zm-1.556.069.41.09v.159l-.72-.16c.005-.27.112-.562.19-.828.18-.6-.02-.522.479-.477l-.352 1.22-.007-.004Zm-1.483-.497v.291h-.348l.202-1.383.656.07c.055.082.219.245.219.292 0 .74-.729.299-.729.727v.003Zm-5.096-.434.36 1.153-.288.082c-.018-.216-.27-1.092-.436-1.092-.166 0-.085.025-.292.073v-.218c.586-.014.91-.48 1.016-.09l-.361.09v.002Zm2.767.653h-.22l.147-1.31c.367.03.51.49.582.8l.124-.01.415-.884h.133l.202 1.4h-.28l-.18-.738-.408.782-.05-.057-.47-.78v.802l.005-.005Zm8.591-.073.065-.426-.355-.227-.511.216c.056-.209 1.154-1.013 1.224-.983.191.081 0 .734-.03.938-.09.525.121.754-.393.482Zm-10.313-1.024.77-.14v.217h-.45l.083.431.437-.07v.15l-.434.068.072.456.507-.09v.198l-.776.09-.21-1.311Zm-3.835-.94c0-.251.008-.054.138-.271l1.117 1.14c-.194.046-.137.073-.29.073-.117 0-.175-.219-.292-.219a.57.57 0 0 0-.408.151l-.16.504-.105-1.381v.003Zm-1.186.372.249 1.011c-1.339-.901-.828-.794-.721.508-.201-.135-.562-.651-.8-.651-.038 0-.16.106-.218.146l1.13 1.058.1-.047-.147-1.082.732.587.219-.09-.361-1.443-.18.01-.003-.007Zm11.54-.01.985-1.262.09.022.159 1.608c-.204-.098-.36-.032-.36-.291v-.292c-.3-.025-.163-.073-.438-.073-.249 0 .068.25-.436.291v-.003Zm2.101-.8.1.798c.024.328-.235.344-.235.584 0 .12.2.17.291.219.104-.447.541-.984.947-1.092-.242-.33-.28.099-.729.218v-.437c0-.23-.18-.247-.374-.29Zm-9.672-.721.602 1.37-.385.01-.236-.649-.128-.006-.118.878-.74-.675.162.882-.251.007v-.292l-.162-1.162c.466.035.535.447.817.653l.084.015.14-.948.215-.083Zm4.147 1.016c.09-.375.45-1.352.873-1.384l.435 1.454h-.213c-.169 0-.22-.051-.22-.219v-.218h-.36c-.402 0-.026.311-.509.36l-.006.007Zm2.254.218c-.654-.014-.147-.721-.147-1.456.347.007.947.095.947.437v.073c0 .239-.147.27-.36.29l.28.807-.422-.096-.186-.649-.104.587-.008.007Zm-5.025-1.456v.291c.028.372.102.739.218 1.092-.607.05-.354.173-.465-.48-.056-.334-.117-.541-.117-.902h.364Zm1.966-.219h.146l.084 1.456c-.45-.036-.772-.65-1.104-.872v.945c-.161-.043-.218-.016-.218-.218v-1.242c.438.037.76.652 1.093.873v-.946.004Zm-.146-3.058c0-.168-.05-.218-.218-.218h-.36c-.264 0-.255.09-.51.146l-.146-.437c.178-.099.38-.149.583-.146h.073c.332 0 .873.342.873.655v.073c0 .197-.034.201-.073.36l.929-.34c.219-.811 1.547-.71 1.547.34v.361c0 .61-.33 1.02-.947 1.02-.925 0-.18-1.166-.727-1.166h-.073c-.197 0-.201.036-.361.073.119.225.36.509.36.8v.074c0 .473-.467.728-.946.728h-.145c-.931 0-1.601-.933-1.675-1.82h.218c.054.644.658 1.456 1.31 1.456h.147c.352 0 .654-.206.654-.582 0-.343-.225-.522-.36-.729l-.631.337-.185-.475c.325-.014.67-.16.67-.444v-.073l-.007.007Zm1.533-.727-.36-.361c-.17.114-.38.291-.656.291-.408 0-.412-.259-.8-.291.09.352.408.517.795.592.585.113.625-.121 1.025-.228l-.004-.003Zm-.655-.51c0 .118-.2.17-.292.218l-.29-.146c.04-.167.076-.29.29-.29.141 0 .292.129.292.217ZM18.572 24.318c.773-.064.583-.27.8-.727-.27-.09.115-.241.322-.553.176-.265.292-.541.698-.541h.874c.55 0 1.077.437 1.31.437.118 0 .613-.733 1.75-.726.72 0 1.532-.308 1.818-.73 0-.675-.36-.59-.36-1.092v-.073c0-.278.144-.361.144-.437 0-.36-.218-.482-.218-.801 0-.163.058-.16.157-.294l-.084-.434c.181-.281.961-1.219 1.303-1.309l.013-.596.386.308.038-.659c.792.911.525.306 1.298.812.18.117 1.053.863 1.102 1.016l-.288-.082-.074.073c.664.444.73.225.802 1.092-.147.098-.294.29-.51.29-.048 0-.944-.338-1.238-.36.368.694.316.658 1.082.956.466.18.834.56.881 1.151l.294-.141c.256-.533.384-1.203.703-1.845.319-.642.694-1.052.972-1.578-1.082-.572-1.905-1.238-3.642-1.238v-.145c.372-.09 1.124-.29 1.533-.29h.654c.88.017 1.748.215 2.549.582 1.443-.968 2.984-2.039 5.389-2.039h.218c1.002 0 2.336.326 3.088.625.442.172.87.378 1.28.614.136.078 1.086.8 1.092.8.405 0 1.541-.583 2.476-.583h.582c.59 0 1.699.2 2.042.466l-1.46.117-.436.146c-.901.074-1.392.677-2.038 1.018.414.62 1.382 1.957 1.456 2.84l.727.218c.051-.604.402-.942.896-1.143.927-.377.582-.238 1.07-.968-.262.022-1.157.36-1.164.36-.254 0-.582-.104-.582-.36v-.073c0-.8.424-.458.797-1.03l-.434.083c.012-.014.74-.643.855-.747.314-.284.613-.49 1.164-.505l.457-.568.028.695.427-.254-.09.434c.3.2.63.313.728.727l.085.06.061.086.536.556-.07.027-.015.8.059 1.093c0 .518-.361.613-.361 1.019v.073c0 .484 1.162.811 1.747.801 1.09-.013 1.684.728 1.821.728.298 0 .776-.437 1.456-.437h.656c.609 0 .773.758 1.164 1.019l.142.135-.142.084-.022.244.387.265-.583-3.931-.029-.441.174-1.598c-1.906 0-4.2-2.985-6.407-2.985l-1.172-.04-1.377.258c-.695-2.985-2.2-4.823-4.512-6.191-1.117-.661-2.39-1.172-3.496-1.82-.566-.33-1.15-.61-1.706-.991-.577-.387-.968-.834-1.505-1.194-.436.292-.965.812-1.443 1.178-.45.341-1.172.698-1.713.983-1.166.618-2.338 1.244-3.496 1.819-2.262 1.124-3.85 3.4-4.492 6.164l-1.235-.168h-1.382c-2.213 0-4.142 2.803-6.334 2.985.03 1.36.209 1.823-.03 3.245-.197 1.17-.403 1.905-.403 3.235Z" clip-rule="evenodd"/>
  <path fill="#111" fill-rule="evenodd" d="M43.544 11.505c0-.121.21-.237.292-.292v.437c-.142-.012-.292 0-.292-.146Zm-.582.509c.504-.042.187-.291.436-.291.27 0 .138.047.438.073v.29c0 .26.16.194.36.292l-.159-1.607-.09-.023-.985 1.266Z" clip-rule="evenodd"/>
  <path fill="#E0E1E0" fill-rule="evenodd" d="m32.839 12.305.313-.1-.313-.191v.291Z" clip-rule="evenodd"/>
  <path fill="#121212" fill-rule="evenodd" d="m32.839 12.014.312.19-.312.101v-.291Zm.028.515a.57.57 0 0 1 .408-.15c.117 0 .175.217.291.217.154 0 .097-.026.291-.073l-1.118-1.14c-.13.215-.137.018-.137.271l.104 1.381.16-.506ZM45.438 11.505c0-.231-.18-.248-.375-.29l.1.797c.024.328-.235.344-.235.584 0 .12.2.17.291.219.104-.447.541-.984.947-1.092-.242-.33-.28.099-.728.218v-.436Z" clip-rule="evenodd"/>
  <path fill="#E0E1E0" fill-rule="evenodd" d="M40.54 13.103c.34-.032.308-.135.308-.507h-.212l-.096.507Z" clip-rule="evenodd"/>
  <path fill="#EEEDEE" fill-rule="evenodd" d="M46.616 12.767c.01.084 0 .193.13.193.167 0 .141-.203.145-.36l-.275.167Z" clip-rule="evenodd"/>
  <path fill="#121212" fill-rule="evenodd" d="m31.741 13.548.219-.09-.361-1.442-.18.009.249 1.011c-1.34-.901-.828-.794-.722.508-.203-.136-.564-.652-.802-.652-.038 0-.16.105-.218.146l1.13 1.057.1-.046-.147-1.082.732.581ZM46.891 12.595c0 .162.023.361-.145.361-.13 0-.12-.109-.13-.193l.27-.172.005.005Zm-.145 1.018c.514.27.305.044.392-.481.034-.205.222-.857.03-.939-.07-.03-1.171.775-1.224.983l.511-.215.356.227-.065.425ZM38.154 12.892l.466.786.05.057.408-.782.18.738h.28l-.202-1.4h-.133l-.414.884-.125.01c-.072-.31-.215-.77-.582-.8l-.147 1.31h.22l-.001-.803ZM40.636 12.598h.212c0 .371.032.474-.308.507l.096-.505v-.002Zm-.153.872c0-.428.729.013.729-.728 0-.047-.164-.21-.22-.29l-.655-.071-.202 1.383h.349v-.294ZM37.423 13.814l.002-.198-.506.091-.072-.456.433-.069v-.149l-.438.07-.083-.431.448-.003v-.218l-.77.14.21 1.313.776-.09ZM29.707 14.125c-.45 0-.641.321-.655-.29h.36c-.028-.108-.013-.219-.145-.219-.279 0-.437.216-.437.51 0 .17.095.36.292.36h.727c-.004.233.024.36-.218.36h-.218c.043.163.017.219.218.219.236 0 .437-.317.437-.583 0-.154-.026-.095-.073-.29-.203-.038-.12-.067-.288-.067ZM42.318 12.746c-.498-.044-.302-.122-.478.478-.079.266-.18.556-.192.828l.722.159v-.159l-.41-.09.358-1.216ZM35.747 12.946c-.105-.391-.43.074-1.015.09v.217c.206-.048.124-.073.29-.073.168 0 .42.876.437 1.092l.289-.082-.36-1.153.359-.091Z" clip-rule="evenodd"/>
  <path fill="#FFFFFD" fill-rule="evenodd" d="M25.776 11.65h-.291c-.232.991-1.384 1.34-1.384 2.33v.656c.463-.011.843-.292 1.532-.292l.876-.017 1.089.102-.068-.041 1.088-2.592c-1.263-.294-1.411-.146-2.842-.146Z" clip-rule="evenodd"/>
  <path fill="#fff" fill-rule="evenodd" d="m49.658 11.869 1.093 2.562 1.528-.09h.073c.85 0 1.309.277 1.894.291v-.583c0-.997-1.212-1.353-1.456-2.403h-.438c-1.255.004-1.76-.272-2.694.223Z" clip-rule="evenodd"/>
  <path fill="#121212" fill-rule="evenodd" d="M47.546 14.198c.386-.032.47-.466.729-.655l.09 1.237.19.157.892-1.172-.229-.077-.48.673-.196-1.338-.08-.02-.916 1.195Z" clip-rule="evenodd"/>
  <path fill="#1F2020" fill-rule="evenodd" d="m43.685 13.542.497.132.038-.102-.748-.4-.585 1.245.727.365.055-.067-.396-.326.142-.328.488.145.058-.086-.438-.222.162-.356Z" clip-rule="evenodd"/>
  <path fill="#F47621" fill-rule="evenodd" d="M29.635 16.103v.134h.291c1.215 0 1.976.6 2.756 1.01l.169-.22-.222-.3.346.15.45-.348c-.918-.215-1.228-.51-2.548-.51l-.293-.017-.949.101Z" clip-rule="evenodd"/>
  <path fill="#ECB32B" fill-rule="evenodd" d="M10.558 17.256c.27-.18 1.614-2.094 2.093-2.566.803-.794 1.572-1.499 2.366-2.294 1.638-1.638 2.292-3.886 3.404-5.989-.243.065-2.228 1.75-2.62 2.04-1.068.787-1.557 1.216-2.458 2.202-1.422 1.566-2.785 3.664-2.785 6.607Z" clip-rule="evenodd"/>
  <path fill="#F47621" fill-rule="evenodd" d="m47.91 16.529.437-.146.36-.073c-.17-.108-.368-.145-.655-.145h-1.161c-.758 0-1.3.298-1.893.436.037.139.24.36.36.36.142 0 .237-.099.45-.122l-.304.27.069.22c.457-.038 1.765-1.163 2.337-.8Z" clip-rule="evenodd"/>
  <path fill="#9F9F9F" fill-rule="evenodd" d="m28.543 17.183.238.115-.238-.115Z" clip-rule="evenodd"/>
  <path fill="#CFD0D0" fill-rule="evenodd" d="m50 16.795.383.33-.36-.09c.127.355.225.09.483.247.376.222-.225.277.172.409l.009-.302.209.156c-.046-.2-.145-.296-.145-.437 0-.274.047-.137.041-.45l-.188.45c-.134-.09-.29-.212-.29-.437 0-.043.1-.151.11-.258l-.425.382Z" clip-rule="evenodd"/>
  <path fill="#7F8080" fill-rule="evenodd" d="m28.834 17.402.16-.014-.16-.132v.146Z" clip-rule="evenodd"/>
  <path fill="#66625E" fill-rule="evenodd" d="m52.28 17.62.072-.218-.06-.085-.086-.06c-.243 0 .063.351.073.364Z" clip-rule="evenodd"/>
  <path fill="silver" fill-rule="evenodd" d="M49.148 17.985c.333-.09.644-.383.874-.582a1.171 1.171 0 0 0-.874.582Z" clip-rule="evenodd"/>
  <path fill="#D0D1D1" fill-rule="evenodd" d="m27.814 17.839.145-.073v.29h.073v-.345l.58-.09v-.16l-.38.077.166-.355h.146c-.135-.2-.209-.339-.522-.34l.231.122v.146c0 .296-.115.391-.292.51v-.292h-.054l-.093.51Z" clip-rule="evenodd"/>
  <path fill="#818181" fill-rule="evenodd" d="m29.561 17.912.073-.073-.155-.069.082.142Z" clip-rule="evenodd"/>
  <path fill="#E0E0DE" fill-rule="evenodd" d="M29.416 18.349c-.076-.287-.289-.369-.582-.437.062.232.355.376.582.437Z" clip-rule="evenodd"/>
  <path fill="#908F8F" fill-rule="evenodd" d="m27.814 17.839-.276.316.276-.17v-.146Z" clip-rule="evenodd"/>
  <path fill="#EEEDEE" fill-rule="evenodd" d="M52.28 17.62c.037.164.072.168.072.361 0 .25-.054.281-.073.51.097-.112.291-.244.291-.438v-.072c0-.202-.167-.278-.29-.36Z" clip-rule="evenodd"/>
  <path fill="#E0E0DE" fill-rule="evenodd" d="m48.566 18.203.208-.002.083-.216.135-.174-.426.174v.218Z" clip-rule="evenodd"/>
  <path fill="#ECB32B" fill-rule="evenodd" d="M8.738 20.241c.908-1.046 1.495-1.412 2.814-2.063.943-.466 2.032-1.523 2.282-2.596-.7.469-1.213.992-2.05 1.371-1.235.56-1.166.697-2.1 1.323.07-.302.441-1.017.584-1.382.142-.365.28-1.251.348-1.691.108-.717.03-1.185.221-1.817.15-.491.498-1.031.594-1.442-.715.478-1.871 2.292-2.083 3.377-.152.772-.191 1.72-.304 2.464a40.229 40.229 0 0 0-.306 2.456Z" clip-rule="evenodd"/>
  <path fill="#606161" fill-rule="evenodd" d="M48.566 18.203h-.146v.146c.09-.05.078-.073.218-.073.278 0 .027-.022.219.073v-.36l-.083.216-.208-.002Z" clip-rule="evenodd"/>
  <path fill="#E0E1E0" fill-rule="evenodd" d="m50.877 18.115-.127.015h-.073c-.241 0-.152.146-.29.146-.252 0-.283-.054-.51-.073.06.224.141.291.436.291h.073a.708.708 0 0 0 .69-.614l-.199.235Z" clip-rule="evenodd"/>
  <path fill="#D0D1D1" fill-rule="evenodd" d="m29.85 18.427-.073.273.314-.069-.165-.355-.304.023.228.128Z" clip-rule="evenodd"/>
  <path fill="#ECB32B" fill-rule="evenodd" d="M69.39 18.276c-.902-.601-.773-.811-2.062-1.36-.732-.31-1.46-.914-2.088-1.334.09 1.043 1.448 2.029 2.227 2.505.53.322 1.034.523 1.546.858.63.415.83.87 1.251 1.151-.063-.753-.202-1.623-.297-2.47-.08-.721-.17-1.727-.328-2.44-.25-1.126-1.385-2.957-2.143-3.463.083.356.499.991.642 1.47.159.525.236 1.24.3 1.812.08.726.121 1.18.31 1.803.138.452.544 1.05.641 1.468Z" clip-rule="evenodd"/>
  <path fill="#E0E0DE" fill-rule="evenodd" d="m25.988 18.417.384.585-.09-.726c-.012-.084.038-.147.052-.307l-.346.448Z" clip-rule="evenodd"/>
  <path fill="#E0E1E0" fill-rule="evenodd" d="M28.252 18.932c.295 0 .39-.115.505-.309l-.45.109-.2-.217-.349.037-.237-.202a.79.79 0 0 0 .73.582Z" clip-rule="evenodd"/>
  <path fill="#ED2024" d="M22.062 18.858h-.146v.146h.146v-.146Z"/>
  <path fill="#EE2E2D" fill-rule="evenodd" d="M22.134 18.64v.51h-.29v-.51l-.073.436c-.012.167.061.219.218.219s.231-.052.227-.22l-.082-.435Z" clip-rule="evenodd"/>
  <path fill="#F8AEAF" fill-rule="evenodd" d="M21.916 19.004v-.146h.146v.146h-.146Zm.218-.361-.072.145h-.135l-.084-.141v.509h.291v-.513Z" clip-rule="evenodd"/>
  <path fill="#FEFCF4" fill-rule="evenodd" d="M21.48 20.241c.15.101.188.22.36.22h.29c.177 0 .215-.119.361-.22-.078.294-.124.238-.36.361h-.291c-.35-.185-.196-.043-.36-.36Zm-.362-.873h.437c.22 0 .202.085.219.291h-.36c-.271 0-.236-.18-.292-.291h-.004Zm1.675 0 .157-.069-.084.142c-.109.147-.167.218-.438.218h-.218c.034-.405.134-.291.583-.291Zm-.947-.728-.072.437c-.013.166.061.218.218.218s.23-.052.227-.22l-.082-.435-.072.145h-.135l-.084-.141v-.004Zm-1.02.874v.36c0 .451.564 1.02 1.018 1.02h.291c1.353 0 1.48-2.403-.145-2.403h-.146c-.455.003-1.019.568-1.019 1.023Z" clip-rule="evenodd"/>
  <path fill="#EEEDEE" fill-rule="evenodd" d="m51.492 17.84-.16.217c0 .878-.48.783-.57 1.249-.197 1.007.09.569-.452 1.373.414-.035.276-.218.438-.218a.278.278 0 0 1 .29.29c0 .387-.218.304-.218.947-.301.202-.644.451-.648.959l.361-.231c.42 0 1.074-.296 1.19-.556.303-.67.619-.549.632-1.118-.324.372-.87 1.189-1.457 1.238.338-.505 1.006-1.007 1.037-1.584l-.614.556-.075-.064-.06-.671-.36.09c.068-.817.946-.523.96-1.81l-.524.572c.012-.524.328-.583.31-.88l.128-.94v-.073c0-.27-.072-.328-.18-.435l-.028 1.089Z" clip-rule="evenodd"/>
  <path fill="#020202" fill-rule="evenodd" d="M55.555 24.683c-.07.263-.006.195-.29.218v-.13l.29-.088Zm0 0 .361-.09v-.058h-.291l-.073.146.003.002Zm-.651-.432.025-.462.19.311v.291h-.074v-.224l-.141.084Zm.282-.587.229.512-.133.213-.096-.722v-.003Zm-1.379.436v-.148l-1.112.236.749.131v.073c-.586 0-1.434-.109-1.662-.401l.424-.18c.158.083.331.133.51.145.295 0 .377-.067.437-.291h.145v.146h.292c.335 0 .428.237.442-.286.008-.281-.006-.593-.006-.88h.073c0 .745.27 1.326-.29 1.457l-.002-.002Zm4.883-.509.36.073v.308l.361-.09v.218h-.29c-.296 0-.354-.323-.438-.51l.007.002Zm-3.786-.872h.146v.437h-.073v-.218c0-.279.022-.027-.073-.22Zm-6.408.073.007-.123 1.013-.241-.038.395-.18-.25h-.145c-.245 0-.147.208-.656.219Zm8.661-.288a.68.68 0 0 1 .581-.296h.146c.408 0 .564.119.728.36-.021-.005-.765-.27-.8-.29l-.654.226ZM47.62 21.48l-.567-.39.169 1.917.54-.289 1.166-.288c-.139-.6-.25-.558-.801-.513l-.51-.437h.003Zm-.146-.8.22.218c.058-.04.18-.145.217-.145.164 0 .141.27.207.459l-.644-.385-.232-.09.17-.138.06.085.002-.004Zm2.19.507.515-.21-.137.254.636-.263c-.083.124-.695.655-.873.655-.109 0-.322-.156-.477-.246l-.325.465-.008-.387.46-.126-.115-.385.373-.342-.05.585Zm-1.025.36h-.072v-.29c.18-.351.204-.55.655-.656-.218.299-.583.307-.583.947Zm.292-1.601c-.325.027-.19.017-.355.216l-.078-.27.651-.16v.072h-.218v.145-.003Zm3.64-.583v.146c0 .164.058.16.127.288l-.077.35-.27.31c.03-.362.145-.271.145-.583 0-.252-.054-.283-.073-.51h-.14l.286-.73h.145c-.028.34-.145.36-.145.727l.002.002Zm-1.493-1.487a.708.708 0 0 1-.691.614h-.073c-.295 0-.377-.068-.436-.291.227.018.258.073.509.073.139 0 .05-.146.291-.146h.073l.127-.016.2-.234Zm-2.511.323v-.219l.426-.174-.135.174v.361c-.192-.096.06-.073-.22-.073-.139 0-.128.023-.217.073v-.146l.146.004Zm3.713-.583c.124.083.291.159.291.36v.073c0 .194-.194.325-.29.437.018-.228.072-.259.072-.51 0-.196-.035-.2-.073-.36Zm-3.13.36c.332-.09.643-.382.873-.582a1.173 1.173 0 0 0-.874.583Zm2.184.073c0 .878-.482.783-.572 1.249-.197 1.007.09.568-.45 1.373.413-.035.275-.219.437-.219a.281.281 0 0 1 .272.178c.014.036.02.075.019.114 0 .386-.22.304-.22.946-.3.202-.643.451-.647.959l.361-.231c.42 0 1.074-.296 1.19-.557.303-.668.619-.548.632-1.117-.324.372-.87 1.189-1.457 1.238.338-.505 1.006-1.008 1.037-1.584l-.614.556-.075-.064-.06-.671-.36.09c.068-.817.946-.523.96-1.81l-.524.572c.012-.524.328-.583.31-.88l.128-.94v-.073c0-.27-.072-.328-.18-.435l-.029 1.091-.16.218.002-.003Zm-.91-1.64c-.009.105-.11.214-.11.257 0 .225.157.347.291.437l.188-.45c.006.313-.042.18-.042.45 0 .14.1.236.145.437l-.209-.156-.009.302c-.396-.132.205-.187-.171-.41-.258-.153-.36.109-.484-.246l.36.09-.383-.33.425-.38v-.002Zm-18.095 2.669.146-.073c.09.397.245.801.729.801h.072c.54 0 .617-.582.946-.582h.361a.792.792 0 0 1 .728.582c.581-.307 1.524-.655 2.403-.655v-.438c-.163-.243-.402-.582-.8-.582h-.293c.073-.27.474-.51.802-.51h.443c.338 0 .59.231.728.437.205-.137.566-.436.874-.436h.437c.264 0 .255.09.51.145-.271.369-.658.18-.801.801l.005.86.213.09 1.381-.224c.152-.102.654-.517.654-.728v-.073c0-.41-.48-.84-.873-.873.144-.197.39-.291.728-.291h.146c.655 0 .81.63 1.165.727.1-.371.556-.582 1.019-.582h.146c.526 0 1.092.368 1.092.874v.072c0 .4-.68.802-1.165.802h-.145c-.317 0-.226-.116-.541-.114l-.408.55c.66.154 1.433.768 1.803 1.257.69.914.041 1.219 1.84 1.219-.439.278-.773-.026-1.263.415-.258.235-.299.79-.613 1.134a4.56 4.56 0 0 1-.937.811c-.41.27-.915.36-1.195.553.076.113.097.218.291.218.906 0 2.33-.216 2.33.873v.146c0 .655-.767 1.02-1.456 1.02h-.073c-.656 0-.841-.346-1.165-.583-.103.388-.588.728-1.091.728h-.147c-.264 0-.255-.09-.509-.145.083.158.218.42.218.655 0 .51-.822 1.02-1.383 1.02h-.073c-.502 0-1.063-.202-1.165-.583h-.217c-.09.255-.54.51-.873.51h-.073c-.766 0-1.367-.443-1.383-1.166.55.292 1.442.238 1.602-.36-.44-.036-.875-.26-.875-.728 0-.51.575-.728 1.093-.728v-.874c-.126-.08-1.064-.156-1.254-.203-.445-.107-.74-.3-1.068-.378l-.08.654v1.238a.779.779 0 0 0 .727.728h.219c-.079.294-.436.582-.802.582h-.36c-.783 0-.981-.557-1.238-1.092-.17.114-.38.291-.655.291h-.073c-.36 0-.63-.163-.873-.29.18.76 1.442 1.945 1.983 2.457.353.333.852.631 1.317.867.427.213 1.277.489 1.578.68.163-.038.167-.073.36-.073h.073c.34 0 .229.146.728.146.09-.396.43-1.093.874-1.093.602 0 .745 1.126 1.016 1.062l1.023-.042 1.965-.8c1.675-.887 3.933-3.489 3.933-5.972h.072c0 .763-.019 1.353.291 1.82a.58.58 0 0 0 .36-.509c0-.202-.055-.175-.217-.219.047-.194.073-.137.073-.291 0-.154-.026-.085-.073-.291-.067-.044-.218-.118-.218-.218 0-.217.145-.195.145-.51l.009-.135.209-.156h1.752c.37.247.732.607 1.14.827.53.286.99.239 1.508.457.314.132.519.847.793 1.172.274.325.855.566.855 1.184v.073c0 .213-.534 1.154-.655 1.383l-.583.655-.218.51h.722l.079-.142.295-.65.142-.079.436-.509c.147-.631.874-.948.874-1.238v-.08c0-.1-.51-.9-.51-1.31a.28.28 0 0 1 .292-.291h.073c.232 0 1.855.874 2.023 1.035.263.253 1.108 1.671 1.108 2.023v.146c0 .27-.037.353-.146.51l-.145.36v.36h.654l.146-.073v-.218l-.083-.3.146-.206-.863-3.134a1.199 1.199 0 0 1-1.046-.702c-.07-.146-.411-1.283-.411-1.41v-.361c0-.164.058-.16.15-.252l1.452-.185c.643.43.2 1.49 1.893 1.532.208-.132.36-.005.36-.29v-.21l-.288-.082-.384-.262.023-.245-.08-.077.08-.142c-.392-.261-.556-1.018-1.165-1.018h-.66c-.68 0-1.16.436-1.457.436-.137 0-.731-.74-1.821-.728-.585.007-1.747-.317-1.747-.801v-.073c0-.406.36-.5.36-1.019l-.058-1.093.014-.8.07-.026-.528-.56-.073.219c-.01-.013-.316-.36-.073-.36-.096-.415-.427-.527-.728-.728l.09-.434-.426.254-.028-.695-.457.568c-.552.015-.85.221-1.165.505-.115.104-.843.733-.855.747l.435-.083c-.374.572-.798.23-.798 1.03v.073c0 .26.328.36.582.36.007 0 .902-.342 1.165-.36-.489.73-.143.59-1.071.968-.494.201-.845.541-.895 1.143l-.724-.219c-.781-.18-1.058-1.205-1.432-1.845-.329-.563-1.056-1.309-1.533-1.742-.86-.777-3.095-1.873-4.678-1.873h-.438c-1.701 0-3.181.61-4.267 1.267-.742.445-2.46 2.043-2.655 2.883Z" clip-rule="evenodd"/>
  <path fill="#F48889" fill-rule="evenodd" d="m22.863 19.44.084-.142-.157.07.073.073Z" clip-rule="evenodd"/>
  <path fill="#EEEDEE" fill-rule="evenodd" d="m39.828 19.514.729.436.655-.654-1.384.218Z" clip-rule="evenodd"/>
  <path fill="#EE2424" fill-rule="evenodd" d="M21.116 19.368c.056.107.016.29.29.29h.361c-.017-.205 0-.29-.218-.29h-.433ZM22.863 19.44l-.073-.072c-.45 0-.55-.114-.582.29h.218c.27 0 .329-.07.437-.217Z" clip-rule="evenodd"/>
  <path fill="#D0D1D1" fill-rule="evenodd" d="m25.921 20.314.36.583c-.03-.36-.145-.27-.145-.583 0-.293.016-.427.223-.51l-.442-.8c.004.74.228.363.004 1.31Z" clip-rule="evenodd"/>
  <path fill="#EEEDEE" fill-rule="evenodd" d="M26.285 21.407c.246.465.231.224.45.491.161.194.119.48.33.618.112.071 1.234.45 1.401.492-.068-.811-.87-.636-.582-1.237a.696.696 0 0 1-.288-.585v-.216c.195-.047.137-.073.291-.073.006 0 .312.19.36.219-.06-.228-.201-.365-.284-.59-.13-.353-.024-.44-.09-.783-.09-.467-.572-.372-.562-1.262l-.167-.21.011-1.092c-.114.077-.218.096-.218.291l-.005.22.078.8c.09.545.326.493.314.991l-.46-.483c-.085 1.022.738.896.947 1.675h-.215c-.168 0-.22.05-.22.218v.438c-.43-.036-.458-.386-.727-.583.038.46.418.992.8 1.092l-.061.039.353.54c-.533-.123-.532-.172-.828-.554-.18-.23-.175-.113-.361-.3-.215-.215-.168-.456-.267-.156Z" clip-rule="evenodd"/>
  <path fill="#ED2024" fill-rule="evenodd" d="m32.629 16.727.221.3-.168.22c-.781-.41-1.542-1.01-2.756-1.01h-.291v-.134l.943-.1.293.015c1.321 0 1.63.296 2.549.51l-.45.35-.346-.15h.005Zm-1.757 4.17c1.116-.025.764-.902 1.311-1.533v-.212l.142-.08c.195-.838 1.913-2.433 2.65-2.884 1.082-.656 2.566-1.267 4.267-1.267h.437c1.584 0 3.818 1.097 4.68 1.874.478.432 1.205 1.179 1.532 1.741.374.64.65 1.664 1.432 1.846-.074-.884-1.042-2.22-1.456-2.84.645-.342 1.135-.944 2.038-1.019-.572-.36-1.88.763-2.33.8l-.069-.219.305-.27c-.218.023-.313.122-.451.122-.124 0-.327-.225-.36-.36.593-.138 1.135-.437 1.893-.437h1.159c.287 0 .485.037.655.145l-.36.073 1.46-.116c-.344-.27-1.453-.466-2.043-.466h-.582c-.935 0-2.074.582-2.476.582-.006 0-.956-.72-1.092-.8a9.507 9.507 0 0 0-1.28-.611c-.752-.3-2.086-.625-3.088-.625h-.218c-2.405 0-3.945 1.07-5.389 2.038a6.433 6.433 0 0 0-2.549-.582h-.654c-.406 0-1.159.204-1.533.29v.146c1.737 0 2.558.665 3.642 1.238-.278.526-.654.938-.972 1.578-.319.639-.445 1.315-.7 1.848Z" clip-rule="evenodd"/>
  <path fill="#F8AFB1" d="M24.465 19.732h-.218v.146h.218v-.146Z"/>
  <path fill="#C0BFBF" fill-rule="evenodd" d="M48.93 19.805h.218v-.073l-.65.16.077.27c.166-.198.03-.188.355-.216v-.141Z" clip-rule="evenodd"/>
  <path fill="#E0E1E0" fill-rule="evenodd" d="M52.57 19.368c0-.368.118-.387.146-.728h-.145l-.285.73h.139c.018.228.073.26.073.51 0 .316-.116.225-.146.583l.27-.308.077-.351c-.068-.128-.126-.124-.126-.288l-.002-.148Z" clip-rule="evenodd"/>
  <path fill="#CFD0D0" fill-rule="evenodd" d="M29.634 20.241c.168.084.313.208.421.36l.09-.287c-.428-.035-.15-.145-.436-.145h-.22c.05.169-.099.206.145.072Z" clip-rule="evenodd"/>
  <path fill="#EF4643" fill-rule="evenodd" d="M21.48 20.241c.168.321.014.18.36.36h.291c.24-.125.286-.07.36-.36-.149.101-.188.22-.36.22h-.291c-.171.004-.21-.119-.36-.22Z" clip-rule="evenodd"/>
  <path fill="#EE2A27" fill-rule="evenodd" d="M20.826 19.514c0-.451.564-1.02 1.018-1.02h.146c1.623 0 1.495 2.403.146 2.403h-.292c-.45 0-1.018-.565-1.018-1.02v-.363Zm3.425.36v-.146l-.726-.09-.072-.424.667-.563c-.27.041-.524.2-.743.2-.18 0-.27-.18-.436-.291l.388-.789-.589.586c-.623-.157-.6-.168-.6-.89l-.238.722-.49.083-.5-.596.221.73-.36.387-.669-.254.518.516-.157.46-.88.078v.066l.876.137.09.516-.692.407c.375 0 .474-.186.822-.186.09 0 .187.245.36.361l-.252.568.488-.406.486.152.1.776c.423-.508-.253-.647.708-.871l.483.532-.203-.747.343-.255.755.265-.6-.569c.295-.59-.07-.461.902-.461v-.004ZM47.473 20.825v-.146l-.06-.085-.17.138.23.093Z" clip-rule="evenodd"/>
  <path fill="#B1B0B0" fill-rule="evenodd" d="M48.638 21.552c0-.64.36-.648.583-.947-.45.106-.47.305-.655.656v.291h.072Z" clip-rule="evenodd"/>
  <path fill="#EE2424" fill-rule="evenodd" d="M55.12 19.587c0 .6.521 1.31 1.09 1.31h.292c.252 0 .282-.054.51-.072-.349-.476-1.383-.541-1.383-1.749v-.073c0-.25.054-.28.073-.509-.257.168-.583.678-.583 1.093Z" clip-rule="evenodd"/>
  <path fill="#EDA927" fill-rule="evenodd" d="m40.557 19.95-.729-.436-.213-.087-.005-.86-.054 2.493 1-1.11Z" clip-rule="evenodd"/>
  <path fill="#CFD0D0" fill-rule="evenodd" d="m47.473 20.826.644.385c-.066-.18-.043-.458-.207-.458-.038 0-.16.104-.218.145l-.219-.219v.147Z" clip-rule="evenodd"/>
  <path fill="#EE2A27" fill-rule="evenodd" d="M54.755 19.659v-.072c0-.703.663-1.533 1.31-1.533h.437c.712 0 1.384.68 1.384 1.384v.291c0 .773-.767 1.456-1.533 1.456h-.142c-.672 0-1.456-.801-1.456-1.532v.006Zm1.747 1.675c.802 0 1.602-.8 1.602-1.602v-.073c0-.95-.7-1.82-1.602-1.82h-.436c-.585 0-1.457.811-1.457 1.384v.727c0 .688.866 1.384 1.675 1.384h.218Z" clip-rule="evenodd"/>
  <path fill="#FEFCF4" fill-rule="evenodd" d="M55.12 19.587c0-.415.326-.921.582-1.093-.02.228-.073.259-.073.51v.073c0 1.203 1.035 1.272 1.383 1.748-.228.019-.258.072-.51.072h-.291c-.57 0-1.092-.71-1.092-1.31Zm-.361.072c0 .728.784 1.533 1.456 1.533h.146c.761 0 1.532-.684 1.532-1.456v-.291c0-.705-.672-1.384-1.384-1.384h-.436c-.647 0-1.31.826-1.31 1.532l-.005.066Z" clip-rule="evenodd"/>
  <path fill="#12120F" fill-rule="evenodd" d="M26.139 20.314c0 .316.116.226.146.583l-.36-.583c.22-.947 0-.575 0-1.31l.441.8c-.207.083-.223.217-.223.51h-.004Zm.198-2.344c-.013.16-.064.224-.052.308l.09.726-.384-.586.35-.45-.004.002Zm-.198 3.51.146-.071c.1-.3.052-.06.27.165.18.186.18.068.361.3.297.38.296.43.829.553l-.354-.54.063-.04c-.384-.101-.763-.63-.801-1.09.27.196.296.545.728.581v-.437c0-.168.05-.218.218-.218h.219c-.209-.779-1.032-.653-.947-1.675l.46.483c.012-.5-.225-.45-.314-.991l-.078-.8.005-.22c0-.195.105-.215.218-.291l.146-.145h-.219c-.341.09-1.121 1.028-1.31 1.31l.084.434c-.099.134-.157.13-.157.294 0 .319.218.438.218.801 0 .074-.145.159-.145.437v.073c-.003.497.36.412.36 1.086v.002Z" clip-rule="evenodd"/>
  <path fill="#CE2027" fill-rule="evenodd" d="M30.8 21.26v.22c.21-.14.635-.254.728-.51-.09.05-.078.073-.218.073l-.206.005-.086.213H30.8Z" clip-rule="evenodd"/>
  <path fill="#E0E1E0" fill-rule="evenodd" d="m28.917 21.186.053.45-.511-.227.135.255-.66-.228.902.62c.051-.028.36-.219.36-.219.311 0 .313.258.438.437l.008-.384-.518-.198v-.146l.204-.035-.412-.548v.223Z" clip-rule="evenodd"/>
  <path fill="#E0E0DE" fill-rule="evenodd" d="M30.8 21.48v-.22l-.073-.072c-.27.196-.067.12-.219.437h.144v-.146h.147Z" clip-rule="evenodd"/>
  <path fill="#E0E1E0" fill-rule="evenodd" d="m49.712 20.604-.373.341.115.385-.46.127.008.386.325-.464c.155.09.369.246.477.246.18 0 .79-.532.873-.655l-.636.262.137-.253-.516.207.05-.582Z" clip-rule="evenodd"/>
  <path fill="#FCF0F1" fill-rule="evenodd" d="m47.764 22.719 1.166-.289c-.139-.598-.25-.558-.801-.512l-.51-.437.145 1.238Z" clip-rule="evenodd"/>
  <path fill="#B1B0B0" fill-rule="evenodd" d="M29.999 21.99h.073c0-.515-.231-.848-.656-.947.207.281.583.323.583.947Z" clip-rule="evenodd"/>
  <path fill="#EBB228" fill-rule="evenodd" d="m32.328 19.076-.141.08v.212l.218 1.238c-.314.083-.51.471-.51.873 0 .338.095.585.292.729.163-.341.27-.801.8-.801.266 0 .583.201.583.436v.729c0 .235-.264.36-.51.36-.245 0-.282-.054-.51-.073.146.625.481.731 1.093.874v1.76l-.58-.085c-.524-.09-.948.323-.948.874l.146.29c.243.129.51.292.874.292h.073c.27 0 .485-.18.655-.291.257.534.455 1.092 1.237 1.092h.361c.366 0 .721-.289.802-.583h-.22a.779.779 0 0 1-.727-.727V25.12l.081-.654c.327.077.623.27 1.068.378.19.047 1.127.123 1.253.203l1.748-.218 1.675-1.02h.218l-.073-.146c.326-.238.655-.936.655-1.532v-.072c0-.511-.18-.683-.218-1.093-.114.077-1.495 1.533-1.63 1.718-.324.44-1.764 1.191-2.375.902-.777 0-2.33-.33-2.33-.947v-1.087c0-.61 1.585-1.019 2.33-1.019V19.15c-.879 0-1.822.348-2.402.656a.791.791 0 0 0-.729-.582h-.36c-.33 0-.41.582-.947.582h-.072c-.484 0-.636-.404-.728-.802l-.152.073Z" clip-rule="evenodd"/>
  <path fill="#ECB32B" fill-rule="evenodd" d="m70.77 15.8-.145 2.694v.947c0 1.288.505 1.906.582 2.84-.344-.398-.624-.935-1.036-1.367-.425-.45-.86-.699-1.367-1.036-.798-.533-1.844-1.605-2.475-2.33.043.513.623 1.893.859 2.271.54.87.825 1.01 1.561 1.643.556.478 1.164.935 1.744 1.387.58.453 1.065 1.61 1.32 1.831l.34-5.457v-1.02c0-1.656-1.212-4.158-1.965-5.024.053.615.64 1.833.583 2.621Z" clip-rule="evenodd"/>
  <path fill="#ED2024" fill-rule="evenodd" d="m47.764 22.717-.145-1.238-.567-.39.169 1.916.544-.288Z" clip-rule="evenodd"/>
  <path fill="#D0D1D1" fill-rule="evenodd" d="M57.813 22.282c.036.016.78.285.8.29-.164-.245-.319-.36-.727-.36h-.146a.679.679 0 0 0-.58.296l.653-.226Z" clip-rule="evenodd"/>
  <path fill="#ED1C24" fill-rule="evenodd" d="M30.654 22.28v.801h-.146l.782.217.06-1.712-.696.695Z" clip-rule="evenodd"/>
  <path fill="#E0E0DE" fill-rule="evenodd" d="M48.493 22.79c.508-.01.41-.218.655-.218h.145l.18.25.038-.396-1.008.241-.01.123Z" clip-rule="evenodd"/>
  <path fill="#D0D1D1" fill-rule="evenodd" d="M19.805 23.154c.39-.103.39-.435 1.02-.435.292 0 .361.15.655.219-.073-.1-.279-.291-.436-.291h-.361c-.489-.002-.684.218-.878.507Z" clip-rule="evenodd"/>
  <path fill="#FCF0F1" fill-rule="evenodd" d="M30.508 23.08h.144v-.801l-.146.073c-.194-.047-.137-.073-.29-.073-.155 0-.238.099-.421.149l-.09.372.803.28Z" clip-rule="evenodd"/>
  <path fill="silver" fill-rule="evenodd" d="M54.904 22.719c.095.192.073-.06.073.219v.218h.073v-.437h-.146Z" clip-rule="evenodd"/>
  <path fill="#E0E0DE" fill-rule="evenodd" d="M29.128 23.226h.142c.026-.109.016-.219.146-.219.337 0 .22.136.656.146-.127-.11-.498-.291-.729-.291h-.305l.09.364Z" clip-rule="evenodd"/>
  <path fill="#F57E20" fill-rule="evenodd" d="m41.212 19.293-.655.655-1 1.11.053-2.493c.144-.617.531-.432.8-.801-.253-.059-.244-.145-.509-.145h-.437c-.307 0-.668.3-.873.436-.138-.206-.39-.436-.729-.436h-.436c-.328 0-.73.24-.802.51h.292c.399 0 .638.338.8.581v4.88c.611.287 2.052-.464 2.375-.902.135-.18 1.516-1.642 1.63-1.718l.146-.145 1.165-1.166.408-.55c.314 0 .223.114.54.114h.146c.485 0 1.165-.402 1.165-.802v-.072c0-.507-.566-.875-1.092-.875h-.146c-.462 0-.92.212-1.019.583-.36-.096-.51-.728-1.166-.728h-.145c-.338 0-.584.095-.728.291.393.033.873.463.873.874v.078c-.001.206-.503.62-.656.72Z" clip-rule="evenodd"/>
  <path fill="#9F9F9F" fill-rule="evenodd" d="m59.342 23.3.142-.084-.142-.135-.08.143.08.075Z" clip-rule="evenodd"/>
  <path fill="#020202" fill-rule="evenodd" d="M37.717 23.591v-3.058c-.746 0-2.33.41-2.33 1.02v1.092c0 .615 1.553.946 2.33.946Z" clip-rule="evenodd"/>
  <path fill="#AEAEAE" fill-rule="evenodd" d="M23.592 23.664h.072v-.361c0-.279-.022-.027.073-.22-.4.105-.145.156-.145.58Z" clip-rule="evenodd"/>
  <path fill="#020202" fill-rule="evenodd" d="M41.721 20.97c.035.41.219.581.219 1.092v.072c0 .593-.33 1.291-.656 1.533l.073.146c.83-.019 2.254-.598 2.254-1.384v-.29c0-.669-1.057-1.296-1.748-1.31l-.142.14Z" clip-rule="evenodd"/>
  <path fill="#fff" fill-rule="evenodd" d="M47.62 24.319c.047.207.072.125.072.291 0 .167-.026.097-.073.291.163.044.218.018.218.22a.58.58 0 0 1-.36.509v.582l.146.073c.239-.16.625-.51 1.019-.51h.36c.947 0 1.748 1.025 1.748 1.966 0 .368-.117.387-.146.729.259.06.51.206.51.51 0 .369-.53.873-.946.873h-.291v.219h.51c.18 0 1.016-.752 1.266-.918.53-.353.965-.474 1.5-.757.12-.228.655-1.172.655-1.383v-.073c0-.618-.577-.853-.855-1.184-.279-.33-.479-1.04-.793-1.172-.516-.218-.978-.171-1.509-.457-.407-.22-.769-.58-1.139-.827h-1.748c-.038.163-.072.167-.072.36v.292c0 .2-.035.203-.073.366Z" clip-rule="evenodd"/>
  <path fill="#ECB32B" fill-rule="evenodd" d="m6.845 18.35-.015.436.306 6.04c.51-.587.642-1.114 1.329-1.802.487-.49 1.186-1.017 1.758-1.443 1.03-.773 2.315-2.31 2.446-3.888-.18.119-.938.974-1.183 1.22a9.03 9.03 0 0 1-1.365 1.11c-.5.31-.959.684-1.365 1.11-.531.526-.671 1.016-1.038 1.443.075-.902.606-1.578.653-2.916.042-1.204-.07-2.144-.07-3.42v-.436c0-1.056.45-1.736.509-2.476-.254.187-1.087 1.79-1.287 2.208-.358.75-.678 1.736-.678 2.813Z" clip-rule="evenodd"/>
  <path fill="#E0E0DE" fill-rule="evenodd" d="M53.809 24.1c.561-.13.29-.71.29-1.455h-.072c0 .286.013.598.005.879-.013.523-.106.286-.442.286h-.292v-.146h-.145c-.06.224-.142.29-.437.29a1.262 1.262 0 0 1-.51-.144l-.423.18c.227.292 1.075.401 1.661.401v-.073l-.749-.13 1.113-.236v.149Z" clip-rule="evenodd"/>
  <path fill="#AEAEAE" fill-rule="evenodd" d="m55.283 24.39.133-.214-.23-.512.097.725Z" clip-rule="evenodd"/>
  <path fill="#E71E25" fill-rule="evenodd" d="M47.62 24.319c.037-.163.072-.167.072-.36v-.292c0-.197.035-.2.072-.36l-.209.155-.009.136c0 .314-.145.293-.145.509 0 .094.152.168.218.212Z" clip-rule="evenodd"/>
  <path fill="#E0E1E0" fill-rule="evenodd" d="M58.69 23.591c.084.187.143.51.437.51h.284v-.218l-.36.09v-.308l-.36-.074Z" clip-rule="evenodd"/>
  <path fill="silver" fill-rule="evenodd" d="m55.042 24.167.004.225h.073V24.1l-.19-.311-.025.462.138-.085Z" clip-rule="evenodd"/>
  <path fill="#D0D1D1" fill-rule="evenodd" d="m19.862 24.012-.13.016h-.218c.029.126.138.36-.073.36-.163 0-.16-.057-.291-.146.017.207 0 .292.218.292.372 0 .659-.467.713-.743l-.22.221ZM24.479 24.251l.35.29v-.165l1.016.166v.153l-.728.066v.073c.658 0 1.554-.147 1.82-.51-.196.046-.137.072-.291.072-.044 0-.152-.1-.22-.146l-.582.073h-.141c-.202 0-.175-.056-.218-.218h-.146v.137l-.729.008-.067-1.24-.064 1.241Z" clip-rule="evenodd"/>
  <path fill="#EE2424" fill-rule="evenodd" d="M30.945 25.12v-.219c.1-.15.218-.188.218-.36 0-.406-.115-.84-.509-.874l.291 1.453Z" clip-rule="evenodd"/>
  <path fill="#C0BFBF" fill-rule="evenodd" d="m23.519 24.612.218.073v-.51c-.14.158-.196.161-.218.437Z" clip-rule="evenodd"/>
  <path fill="#9F9F9F" fill-rule="evenodd" d="M23.227 24.756c.123-.09.145-.01.145-.219 0-.208.099-.377.146-.582-.22.162-.29.418-.29.801Z" clip-rule="evenodd"/>
  <path fill="#C0BFBF" fill-rule="evenodd" d="m55.555 24.683.361-.087.004-.058h-.292l-.073.145Z" clip-rule="evenodd"/>
  <path fill="#D0D1D1" fill-rule="evenodd" d="m55.556 24.683-.287.09v.13c.28-.02.216.043.287-.22Z" clip-rule="evenodd"/>
  <path fill="#9F9F9F" fill-rule="evenodd" d="M23.08 25.12c-.045-.066-.119-.219-.219-.219s-.106.09-.141.131l.36.088Z" clip-rule="evenodd"/>
  <path fill="#FCFDFB" fill-rule="evenodd" d="M41.867 20.825c.69.016 1.748.642 1.748 1.31v.291c0 .787-1.428 1.366-2.254 1.384h-.218l-1.675 1.02.073.145 1.602.218 1.532-.145c.28-.194.785-.28 1.195-.552.348-.227.663-.5.936-.812.315-.344.356-.901.614-1.133.487-.442.822-.137 1.262-.416-1.803 0-1.149-.304-1.839-1.219-.368-.488-1.142-1.102-1.803-1.256l-1.173 1.165Z" clip-rule="evenodd"/>
  <path fill="#D0D1D1" fill-rule="evenodd" d="M23.08 25.12c.026.11.016.219.145.219.13 0 .117-.111.142-.225l-.145.085-.143-.079Z" clip-rule="evenodd"/>
  <path fill="#F48889" fill-rule="evenodd" d="m47.62 26.285-.147-.073.004.157.142-.084Z" clip-rule="evenodd"/>
  <path fill="#FDFEFB" fill-rule="evenodd" d="M54.027 28.178c1.9 0 2.454.136 3.713.801.11-.156.146-.24.146-.51v-.145c0-.352-.845-1.77-1.108-2.024-.168-.16-1.79-1.034-2.023-1.034h-.073a.277.277 0 0 0-.272.177.281.281 0 0 0-.02.114c0 .405.51 1.21.51 1.31v.074c.004.285-.726.606-.873 1.237Z" clip-rule="evenodd"/>
  <path fill="#F57E20" fill-rule="evenodd" d="M49.73 27.45c0 .92-1.092 1.72-1.092 2.33v.073a.413.413 0 0 0 .36.36h.226c.224 0 .315-.18.36-.36-.18-.05-.36-.141-.36-.361v-.146c0-.564.549-.984 1.019-.874.061-.26.146-.342.146-.655v-.437c0-.587-.52-1.226-1.093-1.238.295.442.435.538.435 1.308ZM41.139 25.193c.159.237.436.408.436.801v.291c0 .499-.468.771-.8.947l.073.073c.254.058.245.145.51.145h.145c.504 0 .992-.34 1.092-.728.324.237.508.583 1.165.583h.073c.689 0 1.456-.365 1.456-1.02v-.146c0-1.09-1.424-.873-2.33-.873-.195 0-.215-.105-.291-.218l-1.53.145Z" clip-rule="evenodd"/>
  <path fill="#020202" fill-rule="evenodd" d="m40.337 27.014.438.218c.332-.176.8-.451.8-.947v-.291c0-.393-.277-.564-.436-.802l-1.602-.22v1.02c.423.01.873.26.873.655 0 .199-.034.203-.073.367Z" clip-rule="evenodd"/>
  <path fill="#F57E20" fill-rule="evenodd" d="M37.717 25.047v.874c-.518 0-1.093.218-1.093.729 0 .467.436.69.875.727.459-.01.845-.132.946-.51h.145c.075.281.384.51.729.51h.291c.343 0 .521-.225.728-.36.038-.165.073-.168.073-.361 0-.396-.451-.647-.874-.656v-1.027l-.073-.145-1.747.22Z" clip-rule="evenodd"/>
  <path fill="#FCF0F1" fill-rule="evenodd" d="m49.513 27.159-.146-.145c-.203-.137-.307-.22-.656-.22h-.291c-.205 0-.135.032-.218.146l.404.036.998.835-.091-.652Z" clip-rule="evenodd"/>
  <path fill="#130E0B" fill-rule="evenodd" d="m29.84 27.83.271.166-.052.053-.218-.22Zm.963.421c.038-.164.073-.167.073-.36v-.073a.658.658 0 0 0-.656-.656h-.145c-.128 0-.896.61-.946.8.666.057.584.61.963.877l.09-.671.175.348.234-.41.212.145Z" clip-rule="evenodd"/>
  <path fill="#FEEFF0" fill-rule="evenodd" d="M28.906 27.814c.224-.132.428-.297.604-.488.278-.327.202-.386.78-.386-.09-.122-.011-.146-.218-.146h-.438c-.55 0-.728.438-.728 1.02Z" clip-rule="evenodd"/>
  <path fill="#F47621" fill-rule="evenodd" d="m31.673 27.45.316.058-.623-1.02-.164.206.471.756Z" clip-rule="evenodd"/>
  <path fill="#050507" fill-rule="evenodd" d="m23.08 25.12.142.079.145-.085c-.025.114-.01.225-.142.225-.132 0-.118-.11-.146-.218Zm0 0c-.045-.066-.119-.219-.219-.219s-.106.09-.141.131l.36.09v-.001Zm.437-.51c.022-.27.079-.276.218-.436v.51l-.218-.074Zm-.292.146c.123-.09.146-.01.146-.219 0-.208.098-.377.146-.582-.221.162-.292.418-.292.801Zm-3.146-.962c-.054.276-.34.743-.713.743-.22 0-.201-.084-.218-.29.131.09.128.145.29.145.212 0 .103-.238.074-.36h.218l.13-.016.219-.218v-.004Zm3.51-.13c0-.425-.255-.475.146-.583-.095.192-.073-.06-.073.22v.36l-.072.003Zm.953-.658.066 1.24.729-.008v-.137h.146c.043.162.016.218.218.218h.145l.583-.074c.067.046.175.147.219.147.154 0 .095-.026.29-.073-.265.36-1.161.51-1.82.51v-.073l.73-.066v-.153l-1.017-.166v.166l-.352-.285.065-1.242-.002-.004Zm4.8-.143c.23 0 .6.18.728.291-.436-.01-.318-.146-.655-.146-.13 0-.12.11-.147.22h-.142l-.09-.361h.305v-.004Zm-9.539.291c.194-.29.391-.51.874-.51h.36c.158 0 .361.192.437.292-.293-.068-.36-.219-.655-.219-.63 0-.63.334-1.02.437h.004Zm10.705-.075.782.218.06-1.713-.696.694-.146.073c-.195-.047-.137-.073-.291-.073-.154 0-.237.1-.42.149l-.09.372.805.28h-.004Zm.291-1.602h-.147v.146h-.144c.152-.317-.048-.241.22-.437l.071.073h.22l.085-.212.206-.006c.14 0 .128-.023.218-.073-.09.256-.519.37-.729.51Zm-.8.51c0-.622-.376-.665-.583-.946.425.1.656.432.656.947h-.073Zm-1.082-.8.053.45-.511-.228.135.255-.66-.228.902.62c.051-.028.36-.219.36-.219.311 0 .313.258.438.437l.008-.384-.518-.198v-.146l.204-.035-.412-.547v.222Zm1.138-.587a1.147 1.147 0 0 0-.42-.36c-.248.13-.096.096-.146-.072h.218c.285 0 .009.11.437.145l-.09.287h.002Zm-1.803-1.67a.789.789 0 0 1-.728-.583l.237.202.349-.037.2.218.45-.11c-.115.194-.21.31-.506.31h-.002Zm1.37-.631.305-.024.165.355-.314.069.073-.27-.23-.128.002-.002Zm-.205.05c-.227-.062-.52-.205-.582-.438.293.069.505.15.582.437Zm-1.602-.511v.146l-.276.17.276-.316Zm1.019-.438v-.146l.16.131-.16.015Zm-.291-.22.238.115-.238-.114Zm0 0c-.136-.2-.21-.338-.523-.34l.232.122v.147c0 .295-.116.39-.293.509v-.291h-.054l-.09.506.145-.073v.292h.073v-.346l.58-.09v-.16l-.38.077.165-.35.145-.002Zm-1.457-.14h.219l-.146.144-.011 1.093.169.205c-.01.886.47.79.561 1.262.067.342-.04.43.09.783.083.225.224.36.285.59-.052-.028-.36-.22-.36-.22-.155 0-.097.027-.291.074v.215a.695.695 0 0 0 .29.584c-.288.6.515.425.583 1.236-.167-.037-1.29-.42-1.4-.492-.212-.137-.17-.424-.33-.617-.224-.27-.208-.026-.45-.492l-.147.072c-.283.423-1.093.734-1.818.73-1.136-.006-1.632.727-1.75.727-.233 0-.76-.437-1.31-.437h-.874c-.405 0-.522.275-.697.541-.208.312-.588.464-.322.553-.217.45-.027.663-.8.727l.072.36c.163.039.167.074.36.074h.437c1.038 0 .917-1.172 1.456-1.456.48.04 1.602-.02 1.602.436v.218c0 .221-.303 1.294-.391 1.502-.236.556-.67.58-1.138.829l.082.023-.882 2.885.072.36v.535l.803.048h.073l-.297-.862-.073-.436c.042-.51.742-1.758 1.035-2.095.072-.081 1.995-1.11 2.023-1.11.146 0 .437.172.437.292 0 .474-.51 1.088-.51 1.456 0 .242.52.6.655.802l.437.655.51.8.146.292h.8l-.36-.583c-.397-.105-.48-.613-.656-.946-.084-.16-.51-.902-.51-1.02 0-.385.587-.917.82-1.147.411-.405.514-.948.799-1.166.285-.218 1.096-.234 1.512-.451.45-.238.789-.621 1.167-.852l1.6-.09c.395.033.51.468.51.873 0 .176-.118.215-.218.361v.22l-.01.206-.22.163.303.504.145.073c.245-.366.291-.86.304-1.46l.643 1.678c0-.55.423-.962.946-.874l.58.085v-1.76c-.61-.142-.946-.248-1.091-.873.227.019.259.073.51.073.25 0 .509-.13.509-.36v-.73c0-.235-.317-.436-.583-.436-.527 0-.637.46-.8.8-.197-.142-.291-.39-.291-.727 0-.403.195-.79.509-.874l-.22-1.245c-.546.63-.194 1.505-1.31 1.533l-.293.141c-.048-.59-.416-.971-.882-1.151-.767-.298-.715-.263-1.082-.956.294.024 1.19.36 1.238.36.217 0 .36-.192.51-.29-.071-.867-.137-.648-.8-1.092l-.085-.142.157.069.289.082c-.049-.153-.923-.902-1.102-1.016-.774-.508-.507.097-1.298-.812l-.038.659-.387-.308-.015.594Z" clip-rule="evenodd"/>
  <path fill="#741112" fill-rule="evenodd" d="m30.056 28.049.052-.053-.27-.166.218.219Z" clip-rule="evenodd"/>
  <path fill="#F47621" fill-rule="evenodd" d="M30.8 28.252a1.059 1.059 0 0 0 .728.36h.36v-.36c0-.402-.145-.488-.219-.802-.56-.411-.773-1.383-2.038-1.383-.47 0-.79.462-.8.947.186-.137.35-.51.727-.51.435 0 1.675.52 1.675 1.092v.072a.551.551 0 0 1-.434.584Z" clip-rule="evenodd"/>
  <path fill="#8F191C" fill-rule="evenodd" d="M48.711 27.814v-.073l-.283.237.283-.164Z" clip-rule="evenodd"/>
  <path fill="#FDFEFB" fill-rule="evenodd" d="M20.752 28.834c.437-.102.962-.403 1.558-.554.596-.15 1.363-.102 2.082-.102-.135-.201-.655-.56-.655-.801 0-.368.51-.982.51-1.456 0-.12-.29-.291-.437-.291-.027 0-1.951 1.028-2.022 1.109-.293.337-.994 1.585-1.036 2.095Z" clip-rule="evenodd"/>
  <path fill="#F47621" fill-rule="evenodd" d="M27.96 27.159v.51c0 .313.085.394.145.655.618 0 1.02.414 1.02 1.02v.072c0 .256-.21.226-.36.437.09.134.211.29.436.29.295 0 .51-.157.51-.436 0-.782-1.092-1.326-1.092-2.402 0-.837.19-.875.51-1.311-.55.012-1.17.682-1.17 1.165ZM49.367 27.014l.146.145c-.011-.482-.247-.947-.729-.947h-.437c-.548 0-1.09.775-1.456 1.02.076-.282.219-.254.219-.36 0-.202-.057-.176-.18-.196l-.55.924h.292c-.15.266-.225.568-.218.873v.073c0 .168.05.218.218.218h.073a1.05 1.05 0 0 0 .727-.36c-.116-.174-.36-.325-.36-.51v-.146c0-.561 1.092-1.091 1.6-1.091h.074c.29-.008.517.119.58.357Z" clip-rule="evenodd"/>
  <path fill="#130E0B" fill-rule="evenodd" d="M47.91 28.615h.135l.07-.138.09.36.072.073c.42-.152.098-.676.947-.874-.084-.31-.105-.218-.51-.218l-.283.164.283-.237h.146l.038-.08-.403-.138v-.218c-.195-.047-.136-.074-.29-.074-.3 0-.73.357-.73.583v.291c-.002.478.277-.176.435.506Z" clip-rule="evenodd"/>
  <path fill="#EE2A27" fill-rule="evenodd" d="m47.91 28.615.292.219-.088-.36-.07.137-.134.004Z" clip-rule="evenodd"/>
  <path fill="#EE2424" fill-rule="evenodd" d="M53.59 28.688h.36l.73-.073h.8l.655.146.874.291.583.291.145-.36c-1.262-.666-1.813-.8-3.713-.8l-.434.505Z" clip-rule="evenodd"/>
  <path fill="#ECB32B" fill-rule="evenodd" d="M4.147 21.698c0 1.082.661 3.482.997 4.318.29.72 1.115 3.42 1.115 4.274.141-.104.825-1.893 1.22-2.344a37.443 37.443 0 0 1 1.747-1.894c1.25-1.249 2.275-2.532 2.275-5.006-.188.126-1.034 1.327-1.238 1.602-.429.582-.878 1.007-1.4 1.512-.558.541-.926.748-1.397 1.443-.197.288-.386.623-.551.901-.165.279-.237.735-.424 1.02l.135-2.332v-.58c0-2.061-1.346-4.048-1.262-5.609l.174-2.253c-.548.779-1.39 3.535-1.39 4.948Z" clip-rule="evenodd"/>
  <path fill="#FCFDFB" fill-rule="evenodd" d="M37.498 27.377c-.16.601-1.052.655-1.601.36.016.722.617 1.166 1.382 1.166h.073c.335 0 .782-.255.874-.51h.22c.101.381.662.582 1.164.582h.073c.56 0 1.383-.508 1.383-1.02 0-.234-.135-.496-.218-.654l-.073-.073-.438-.218c-.206.138-.385.36-.727.36h-.291c-.346 0-.654-.228-.729-.509h-.145c-.1.384-.49.506-.947.516Z" clip-rule="evenodd"/>
  <path fill="#ED2024" fill-rule="evenodd" d="m20.752 28.834.073.436 1.383-.51 1.092-.074.874.073.655.073-.437-.655c-.721 0-1.48-.05-2.082.102-.603.152-1.124.453-1.558.555Z" clip-rule="evenodd"/>
  <path fill="#FCDBA6" fill-rule="evenodd" d="m24.028 29.343.073.073 1.238.219-.51-.801-.655-.073-.302.032.176.072-.258.146.238.114v.218Z" clip-rule="evenodd"/>
  <path fill="#020202" fill-rule="evenodd" d="M27.45 28.979c0 .376.534.655.947.655.196 0 .2-.035.36-.073v-.218c0-.258-.45-.51-.728-.51h-.36c-.12 0-.219.044-.219.146Z" clip-rule="evenodd"/>
  <path fill="#FECC89" fill-rule="evenodd" d="m54.027 29.343 1.532.073.07-.72-.143-.085h-.8c-.133.278-.02.53-.038.574-.084.188-.365-.004-.621.158Z" clip-rule="evenodd"/>
  <path fill="#ECB32B" fill-rule="evenodd" d="m73.63 18.202-.017.656c0 2.1-1.237 3.492-1.237 5.825l-.026.803.17 1.819c-.168-.195-.678-1.4-1.005-1.834a6.3 6.3 0 0 0-1.41-1.43c-.541-.423-.902-.964-1.353-1.487-.27-.316-1.074-1.524-1.256-1.657 0 2.414 1.016 3.82 2.24 5.042.548.548 1.329 1.278 1.766 1.874.437.597 1.042 2.18 1.238 2.404 0-.787.79-3.341 1.05-4.12.31-.929 1.061-3.11 1.061-4.18v-.51c0-1.166-.826-4.03-1.324-4.586l.103 1.381Z" clip-rule="evenodd"/>
  <path fill="#FAD698" fill-rule="evenodd" d="M24.028 29.343v-.218l-.238-.114.258-.146-.176-.072.302-.032-.874-.073c.211.512-.473.655.728.655Z" clip-rule="evenodd"/>
  <path fill="#130E0B" fill-rule="evenodd" d="M49.585 29.49a.281.281 0 0 0 .292.29c.529 0 1.007-.278 1.018-.801-.163-.038-.166-.073-.36-.073h-.145c-.301 0-.805.316-.805.583Z" clip-rule="evenodd"/>
  <path fill="#F9E2B1" fill-rule="evenodd" d="M53.808 29.343h.218c.257-.162.541.03.618-.155.019-.044-.09-.295.038-.573l-.729.073-.064.071.06.5-.14.084Z" clip-rule="evenodd"/>
  <path fill="#F9E4BC" fill-rule="evenodd" d="m53.153 29.416.655-.073.142-.084-.06-.5.063-.071h-.364l-.141.08-.295.648Z" clip-rule="evenodd"/>
  <path fill="#FBC678" fill-rule="evenodd" d="M22.207 28.76c-.007.335-.073.243-.073.508 0 .164.084.22.147.292l1.82-.145-.073-.073c-1.201 0-.517-.144-.728-.656l-1.093.073ZM55.555 29.416l.438.145h.145v-.218c0-.186-.017-.18-.072-.327l.158-.042-.09-.213-.655-.146.142.084-.066.717Z" clip-rule="evenodd"/>
  <path fill="#F9C26C" fill-rule="evenodd" d="m55.993 29.561.946.438.072-.947-.873-.293.09.213-.159.042c.055.152.072.14.072.328v.218l-.148.002Z" clip-rule="evenodd"/>
  <path fill="#FCBA68" fill-rule="evenodd" d="m20.825 29.27.292.874 1.164-.582c-.062-.072-.146-.129-.146-.292 0-.265.066-.173.073-.509l-1.383.51Z" clip-rule="evenodd"/>
  <path fill="#fff" fill-rule="evenodd" d="M25.266 28.398c.843.197 2.409 1.675 2.621 1.675h.728c-.097-.36-1.238-.252-1.238-.946v-.073c0-.399.263-.509.582-.582-.067-.294-.218-.361-.218-.656v-.8c0-.468.902-1.238 1.533-1.238.889 0 1.293.54 1.748.582V26l-.302-.505.22-.162.009-.207-.297-1.462-1.6.09c-.379.23-.722.614-1.168.852-.415.22-1.216.226-1.511.45-.296.225-.388.761-.8 1.167-.233.23-.819.762-.819 1.147.002.127.428.867.512 1.028Z" clip-rule="evenodd"/>
  <path fill="#FBD0D0" fill-rule="evenodd" d="m26.285 29.926.78.347.054-.1-1.052-.83h-.146l.364.583Z" clip-rule="evenodd"/>
  <path fill="#F7922F" fill-rule="evenodd" d="m21.043 30.144-.803-.048v-.535l-1.082.658 1.52.216c.07.008.322-.233.365-.291Z" clip-rule="evenodd"/>
  <path fill="#FEEEEE" fill-rule="evenodd" d="M52.498 29.561h-.146l.219-.509-1.647 1.027.058.102 1.516-.62Z" clip-rule="evenodd"/>
  <path fill="#FAD698" fill-rule="evenodd" d="m53.662 30.217-.363.073 1.892.146.084-.3-.116-.202.032-.227-1.019-.073-.073.583h-.437Z" clip-rule="evenodd"/>
  <path fill="#FECC89" fill-rule="evenodd" d="m23.154 29.78.146.146s-.073.136-.073.146c0 .23.021.27.291.29h1.455l-.145-.072h-.66l.004-.51h-1.018Z" clip-rule="evenodd"/>
  <path fill="#FCDBA6" fill-rule="evenodd" d="m24.83 30.29-.22-.437h.146l-.582-.073-.005.51h.66Z" clip-rule="evenodd"/>
  <path fill="#FAE9C6" fill-rule="evenodd" d="M52.862 29.852c.252.084.06.24-.073.438h.509l.36-.073.074-.36h-.146v-.146l-.724.142Z" clip-rule="evenodd"/>
  <path fill="#F9E4BC" fill-rule="evenodd" d="M53.59 29.707v.146h.145l-.073.364h.437l.073-.583-.583.073Z" clip-rule="evenodd"/>
  <path fill="#FEF5E4" fill-rule="evenodd" d="M52.789 30.292c.132-.198.325-.354.073-.438l-1.474.384.016.09 1.385-.036Z" clip-rule="evenodd"/>
  <path fill="#FBB658" fill-rule="evenodd" d="m56.94 29.999.512.375.143-.084.058-.204-.145-.166.087-.213v-.364l-.583-.29-.072.946Z" clip-rule="evenodd"/>
  <path fill="#FBAD4F" fill-rule="evenodd" d="M57.595 30.292c.352-.03.456-.146.873-.146.251 0 .282.054.532.038l-.75-.475h-.655l-.09.213.144.166-.054.204Z" clip-rule="evenodd"/>
  <path fill="#FCD1B9" fill-rule="evenodd" d="m24.83 30.292.145.073 1.31.072c.227.018.158-.05.447-.105l-1.172-.405h-.072l-.729-.073h-.147l.217.438Z" clip-rule="evenodd"/>
  <path fill="#FBC678" fill-rule="evenodd" d="m22.645 29.853.072.728.801-.218c-.27-.023-.29-.06-.29-.291 0-.01.07-.145.072-.146l-.146-.145-.51.072Z" clip-rule="evenodd"/>
  <path fill="#ED2024" fill-rule="evenodd" d="M32.838 34.95c-.388-.033-1.882-.662-2.374-.83-.656-.223-1.87-.63-2.65-.63h-.146c-.737 0-1.31.36-1.31 1.091v.146c0 .5.53.946 1.092.946h.073c.532 0 1.05-.66 1.092-1.165-.283.19-.516.583-1.019.583-.24 0-.582-.222-.582-.361 0-.31.396-.655.727-.655h.36c.567 0 .92.252 1.385.29-.067.793-1.144 1.675-2.185 1.675h-.073c-1.262 0-2.402-1.087-2.402-2.184v-.437c0-1.623 1.532-2.84 3.203-2.84 1.685 0 3.657.822 5.138 1.195 1.525.382 3.736.771 5.564.771h1.532c1.398 0 3.837-.436 4.888-.791.838-.284 3.606-1.172 4.507-1.172h.361c1.765 0 3.495 1.202 3.495 2.767v.218a2.543 2.543 0 0 1-2.548 2.549h-.073c-.932 0-1.945-1.03-2.112-1.748.376-.031.797-.29 1.311-.29.514 0 1.238.252 1.238.727 0 .142-.344.36-.582.36h-.073c-.524 0-.766-.29-1.093-.509.05.601.704 1.019 1.31 1.019.441 0 .947-.355.947-.8v-.146c0-.811-.963-1.238-1.82-1.238-.762 0-4.047 1.324-5.025 1.6-1.815.515-3.309 1.021-5.68 1.021-1.38 0-5.79-.727-6.48-1.165l.004.003Zm-7.573-4.005.533-.248-.678-.116-1.237.073-.874.218-1.238.8a1.117 1.117 0 0 0-.51.948v.219c0 .43.53.91.801 1.091-.06-.26-.146-.341-.146-.655v-.073c0-.167.157-.527.218-.655l1.02-1.02.947-.437 1.165-.145Zm28.325-.437-1.313.034c.303.301.674.403 1.24.403l.436.073 1.02.437 1.093 1.238c.019.228.072.258.072.509v.219c0 .197-.035.2-.072.36.29-.154.727-.526.727-.946v-.51c0-.392-.45-.8-.727-.947l-.875-.51-1.019-.29-.582-.073v.003Zm-.728-.655-1.474.385.016.09 1.382-.035h.51l1.892.145.802.36.655.51.402.477 1.049.207c-.164-.756-.928-1.46-1.524-1.776l-.437-.218-.947-.291-1.018-.073-.583.073-.728.145h.003Zm-3.278-.361c0-.27.505-.583.802-.583h.145c.198 0 .201.035.36.073-.011.523-.489.801-1.018.801a.28.28 0 0 1-.288-.294v.003Zm-19.512-.437c.094.192.072-.06.072.218 0 .52-.24.652-.437.947l4.07 1.117c-.09-.441-.283-.673-.283-1.263 0-.175.145-.323.145-.582 0-.032-1.133-1.234-1.238-1.31l-.27.17c-.023.265-.101.557-.38.557h-.074c-.43 0-.76-.437-.945-.437-.09 0-.581.471-.656.583h-.004Zm-1.674.58c-.413 0-.946-.28-.946-.656 0-.102.099-.145.218-.145h.36c.277 0 .729.251.729.51v.217c-.163.038-.168.073-.36.073Zm2.403-1.384-.215-.148-.235.41-.174-.349-.09.672c-.38-.27-.298-.82-.964-.877.05-.19.819-.8.947-.8h.145a.658.658 0 0 1 .655.655v.073c0 .197-.035.2-.073.36l.004.005Zm17.475.655c.42-.151.098-.675.947-.874-.084-.31-.105-.218-.51-.218v-.073h.146l.038-.08-.402-.138v-.218c-.196-.047-.137-.073-.292-.073-.299 0-.728.356-.728.582v.291c0 .482.279-.172.437.51-.131-.09-.128-.145-.291-.145-.078 0-.49.436-.874.436h-.073c-.378 0-.297-.488-.655-.727l-1.284 1.336c.049.117.12.189.12.41v.583c0 .153-.17.588-.219.802l4.076-1.097c-.43-.639-.436-.147-.436-1.307Zm-19.37-1.092c.224-.132.428-.297.604-.488.278-.327.202-.385.78-.385-.09-.123-.011-.146-.218-.146h-.438c-.55 0-.728.437-.728 1.02Zm2.767-.36-.47-.756.163-.206.622 1.02-.315-.058Zm17.84-.291.09.652-.998-.836-.405-.035c.084-.114.013-.146.218-.146h.291c.349 0 .45.083.655.22-.063-.242-.29-.361-.582-.361h-.073c-.508 0-1.601.53-1.601 1.091v.146c0 .185.247.336.36.51a1.05 1.05 0 0 1-.727.36h-.073c-.168 0-.218-.05-.218-.218v-.073a1.713 1.713 0 0 1 .218-.873h-.291l.549-.924c.122.02.18-.006.18.195 0 .11-.143.082-.219.36.366-.244.908-1.019 1.456-1.019h.437c.483 0 .722.465.729.947l.003.004Zm-17.84.29c.074.314.219.4.219.802v.36h-.36a1.057 1.057 0 0 1-.73-.36.552.552 0 0 0 .438-.583V27.6c0-.573-1.24-1.093-1.675-1.093-.377 0-.541.373-.728.51.011-.485.33-.946.801-.946 1.262 0 1.478.971 2.038 1.383h-.003Zm18.058 0c0 .92-1.093 1.72-1.093 2.331v.072a.413.413 0 0 0 .36.36h.226c.224 0 .315-.18.36-.36-.18-.048-.36-.14-.36-.36v-.146c0-.564.549-.984 1.019-.874.06-.26.146-.343.146-.655v-.438c0-.587-.52-1.225-1.093-1.238.297.445.437.541.437 1.311l-.002-.002Zm-21.772-.29c0-.484.616-1.154 1.166-1.165-.32.436-.51.474-.51 1.31 0 1.077 1.092 1.623 1.092 2.403 0 .279-.215.436-.51.436-.224 0-.346-.156-.436-.29.154-.21.36-.181.36-.437v-.073c0-.605-.402-1.02-1.02-1.02-.06-.26-.145-.341-.145-.655v-.51h.003Zm15.218 2.621v.072c.255-.058.245-.145.51-.145h.292a.278.278 0 0 1 .272.178.28.28 0 0 1 .019.113v.145c0 .884-.408 1.603-1.31 1.603-.493 0-.824-.219-1.094-.219h-.145c-.367 0-.386.117-.728.146.039-.164.073-.167.073-.361 0-.609-.503-.51-1.092-.51h-1.602c-.589 0-1.093-.099-1.093.51v.072c0 .237.063.055.146.36-.16-.084-.355-.218-.582-.218h-.219c-.532 0-.778.219-1.31.219h-.073c-.638 0-1.093-.698-1.093-1.383v-.292c0-.197.035-.2.073-.36h.361c.388 0 .874.223.874.582 0 .18-.2.291-.292.291-.27 0-.138-.047-.436-.073.085.367.283.656.728.656h.437c.29 0 1.067-.435 1.238-.583-.301-.19-1.152-.467-1.578-.68-.465-.232-.965-.533-1.317-.867-.541-.512-1.803-1.696-1.984-2.457l-.146-.291-.642-1.685c-.013.6-.059 1.094-.304 1.46l-.145-.073v.36c-.456-.037-.86-.582-1.748-.582-.631 0-1.533.77-1.533 1.238v.8c0 .292.15.361.218.656-.319.074-.582.18-.582.582v.074c0 .694 1.141.583 1.238.946h-.728c-.213 0-1.779-1.478-2.622-1.675.18.334.26.841.656.947h.146l1.053.83-.054.1-.781-.348h-.729l1.172.405c-.288.055-.219.122-.446.104l-1.31-.072h-1.447l-.8.222-.873.437-.582.51c-.117.437-.812.54-1.311.582.127-.545.803-1.466 1.31-1.602l.511-.36.874-.292.509-.072h1.02l.582.072.728.073-.146-.29-1.238-.22-1.82.146-1.165.582h-.073c-.042.058-.293.3-.36.292l-1.521-.217 1.082-.657-.072-.36c-.451.105-1.67 1.052-1.888 1.328l1.968.198-.008.075c-.36.541-.871.992-.945 1.894l1.533-.368v.437c0 .846 1.15 1.43 1.747 1.747-.115-.49-.291-.646-.291-1.31v-.073c0-.796 1.92-1.893 2.84-1.893-.354.667-.947 1.15-.947 2.185 0 1.938 1.298 3.276 3.203 3.276 1.773 0 2.575-2.039 2.695-2.039.244 0 3.297 1.121 3.945 1.298.89.241 3.509.74 4.5.74h.729c1.791 0 3.336-.354 4.836-.697.954-.217 3.653-1.329 4.193-1.34.203.763 1.408 2.038 2.402 2.038h.583c1.29 0 2.767-1.363 2.767-2.621v-.437c0-1.228-.39-1.68-.874-2.403.97 0 2.62.97 2.62 1.747v.583c0 .27-.13.616-.218.801 1.074-.024 1.586-.901 1.676-1.966.473 0 1.31.316 1.31-.073 0-1.232-1.568-1.674.36-1.674h.22c.598 0 1.163.133.335-.482-.38-.281-.686-.504-1.064-.756v.218l-.146.073.75.475c-.25.015-.28-.039-.531-.039-.418 0-.521.117-.874.147l-.142.083-.513-.375-.947-.437-.437-.145-1.533-.073h-.218l-.655.073-.08.141h-.576l-1.514.62-.059-.102 1.646-1.027.583-.655c-.535.283-.97.404-1.5.757-.25.166-1.091.918-1.267.918h-.51v-.22h.292c.416 0 .946-.503.946-.873 0-.303-.251-.45-.51-.51.029-.341.146-.36.146-.728 0-.941-.801-1.965-1.748-1.965h-.36c-.395 0-.78.349-1.02.51l-.142.083v-.739c-.31-.464-.291-1.058-.291-1.82h-.072c-.008 2.483-2.267 5.084-3.94 5.97v.004Z" clip-rule="evenodd"/>
  <path fill="#FECC89" fill-rule="evenodd" d="m55.191 30.436.802.363v-.582h.145v-.218l-.947-.291-.032.226.116.202-.084.3Z" clip-rule="evenodd"/>
  <path fill="#F9C26C" fill-rule="evenodd" d="m21.771 30.144-.01.446.152.208-.07.22.875-.437-.073-.729-.874.292Z" clip-rule="evenodd"/>
  <path fill="#020202" fill-rule="evenodd" d="M38.372 30.8h1.602c-.068-.254-.434-.801-.728-.801h-.073c-.479 0-.628.473-.8.8Z" clip-rule="evenodd"/>
  <path fill="#FAEACA" fill-rule="evenodd" d="m53.517 30.945-.058-.131.131-.16v-.146l-1.312.034c.303.301.673.403 1.24.403Z" clip-rule="evenodd"/>
  <path fill="#FBC678" fill-rule="evenodd" d="m55.993 30.8.655.51.218-.51-.234-.004.09-.288-.147-.291-.437-.218v.218h-.145v.582Z" clip-rule="evenodd"/>
  <path fill="#F9E2B1" fill-rule="evenodd" d="m25.265 30.945.533-.248-.678-.116-.073.364h.218Z" clip-rule="evenodd"/>
  <path fill="#FDFEFB" fill-rule="evenodd" d="M30.072 29.052c.094.192.072-.06.072.218 0 .52-.239.652-.436.947l4.07 1.117c-.09-.441-.284-.673-.284-1.262 0-.176.145-.324.145-.583 0-.031-1.133-1.234-1.238-1.31l-.27.17c-.023.265-.101.557-.38.557h-.074c-.43 0-.76-.436-.945-.436-.092 0-.585.47-.66.582Z" clip-rule="evenodd"/>
  <path fill="#F9E4BC" fill-rule="evenodd" d="m53.517 30.945.436.073.077-.353.142-.084-.583-.073v.146l-.13.16.058.131Z" clip-rule="evenodd"/>
  <path fill="#ED2024" fill-rule="evenodd" d="M41.212 30.581c.355.332.824.514 1.31.51h.36c.476 0 .686-.373.874-.656-.227.019-.259.073-.51.073h-.145c-.12 0-.218-.043-.218-.145 0-.365.142-.307.29-.51v-.073l-1.961.801Z" clip-rule="evenodd"/>
  <path fill="#FDFEFB" fill-rule="evenodd" d="m48.275 28.906-.073-.072-.291-.22c-.132-.09-.129-.144-.292-.144-.077 0-.49.436-.873.436h-.073c-.379 0-.298-.488-.656-.728l-1.284 1.337c.05.117.12.189.12.41v.583c0 .153-.17.588-.219.801l4.076-1.096c-.429-.643-.435-.147-.435-1.307Z" clip-rule="evenodd"/>
  <path fill="#FAD698" fill-rule="evenodd" d="m53.953 31.018 1.02.436c.245-.065.185-.18.218-.582l-1.019-.291-.142.084-.077.353Z" clip-rule="evenodd"/>
  <path fill="#FCDBA6" fill-rule="evenodd" d="m23.883 30.654.218.436 1.165-.145h-.219l.073-.364-1.237.073Z" clip-rule="evenodd"/>
  <path fill="#FECC89" fill-rule="evenodd" d="m23.009 30.872.004.576.141.08.947-.438-.218-.436-.874.218Z" clip-rule="evenodd"/>
  <path fill="#FBB658" fill-rule="evenodd" d="m21.26 30.508-.028.204-.116.233.073-.01.072.593.582-.51.07-.22-.153-.208.011-.446-.51.364Z" clip-rule="evenodd"/>
  <path fill="#EBB228" fill-rule="evenodd" d="M37.134 30.58c-.17.149-.948.583-1.237.583h-.438c-.444 0-.643-.288-.727-.655.298.025.162.073.436.073.09 0 .291-.11.291-.291 0-.36-.486-.583-.873-.583h-.36c-.039.163-.074.167-.074.361v.291c0 .685.45 1.383 1.093 1.383h.073c.532 0 .778-.218 1.31-.218h.219c.227 0 .42.133.582.218-.083-.31-.146-.127-.146-.36v-.073c0-.608.504-.51 1.093-.51.173-.326.322-.8.8-.8h.073c.294 0 .66.547.729.8.588 0 1.092-.098 1.092.51 0 .197-.035.2-.073.361.341-.028.36-.145.728-.145h.145c.27 0 .6.218 1.093.218.901 0 1.31-.721 1.31-1.602v-.145a.281.281 0 0 0-.177-.273.28.28 0 0 0-.113-.018h-.292c-.265 0-.256.09-.51.145-.149.203-.291.145-.291.51 0 .102.099.145.218.145h.146c.25 0 .282-.054.51-.073-.189.283-.4.656-.874.656h-.36a1.893 1.893 0 0 1-1.31-.51l-1.024.043c-.27.064-.414-1.062-1.016-1.062-.444 0-.782.697-.874 1.092-.5 0-.388-.146-.728-.146h-.072c-.205.003-.208.038-.372.076Z" clip-rule="evenodd"/>
  <path fill="#E0E0DE" fill-rule="evenodd" d="m29.088 31.783.255.036-.036-.255-.219.219Z" clip-rule="evenodd"/>
  <path fill="#E0E1E0" fill-rule="evenodd" d="m30.148 31.675.36.144c-.006-.323.024-.338-.277-.36l-.083.216Z" clip-rule="evenodd"/>
  <path fill="#FBB658" fill-rule="evenodd" d="m56.648 31.31.401.475 1.05.208c-.164-.757-.928-1.46-1.524-1.776l.146.29-.09.288h.234l-.217.514Z" clip-rule="evenodd"/>
  <path fill="#FBAD4F" fill-rule="evenodd" d="m21.261 31.528-.072-.593-.073.01.116-.233.029-.204c-.508.136-1.184 1.057-1.31 1.602.497-.041 1.194-.145 1.31-.582Z" clip-rule="evenodd"/>
  <path fill="#F9C26C" fill-rule="evenodd" d="m21.771 31.673.364.874 1.02-1.02-.142-.079-.004-.576-1.238.8Z" clip-rule="evenodd"/>
  <path fill="#E0E0DE" fill-rule="evenodd" d="m29.46 32.167.253.09.034-.435-.078-.025-.209.37Z" clip-rule="evenodd"/>
  <path fill="#EEEDEE" fill-rule="evenodd" d="m48.052 32.106.159.303-.23.357c.193-.017.436-.119.436-.292 0-.14-.1-.237-.15-.45l-.215.082Z" clip-rule="evenodd"/>
  <path fill="#FECC89" fill-rule="evenodd" d="m54.973 31.455 1.093 1.238.228-.37-.205-.286-.023-.655-.875-.51c-.033.406.027.517-.218.583Z" clip-rule="evenodd"/>
  <path fill="#EEEDEE" fill-rule="evenodd" d="M43.395 33.057h.361c.198 0 .201-.035.36-.073-.124-.109-.126-.145-.36-.145h-.36v.218Z" clip-rule="evenodd"/>
  <path fill="#FDFEFB" fill-rule="evenodd" d="M39.828 37.79h.28l.084.946v.218h.438v.218h-.802V37.79Zm1.462 1.31-.18-.007.382-1.47h.12l.763 1.333h-.428l-.082-.289h-.492l-.09.434h.007Zm-2.406-.728c0 .165.342.62.437.8h-.36l-.366-.508v.51h-.291V37.79h.29v.582c.369-.246.286-.545.73-.582-.085.313-.438.457-.438.582h-.002Zm-1.965 0v.218a.412.412 0 0 0 .36.361h.073c.197 0 .202-.035.361-.075l-.069.22h-.29c-.407 0-.801-.213-.801-.582 0-.902 1.184-1.158 1.238-.51-.31-.082-.128-.146-.361-.146h-.146c-.235 0-.36.265-.36.51l-.005.004Zm-3.685-.27-.18-.101 1.018-1.051.156.04v1.464l-.289-.08v-.293c0-.249-.27-.27-.497-.283l-.202.303h-.006Zm10.356-.888c.341.078.435.95.464 1.304l-.04.069-1.129-.65.222.873-.196-.005-.306-1.307.039-.078 1.145.656-.199-.862Zm-8.422 1.011v.146a.278.278 0 0 0 .291.291c.355 0 .51-.754.51-1.164h.219c-.011.476-.207 1.31-.729 1.31-.302 0-.655-.205-.655-.51 0-.422.187-.643.222-1.034l.361.09c-.15.267-.225.569-.218.874l-.001-.003Zm9.043-1.172c.228-.121.495-.285.86-.285h.218c.248 0 .437.406.437.656 0 .562-.56.767-.974.854l-.54-1.225Zm14.184-7.638c.378.252.684.475 1.064.756.829.615.263.481-.335.481h-.22c-1.931 0-.36.443-.36 1.675 0 .389-.837.073-1.31.073-.09 1.065-.601 1.942-1.675 1.966.09-.18.218-.531.218-.802v-.582c0-.778-1.651-1.747-2.62-1.747.484.721.873 1.172.873 2.402v.441c0 1.258-1.477 2.621-2.767 2.621h-.582c-.992 0-2.2-1.275-2.403-2.038-.54.011-3.238 1.123-4.193 1.34-1.503.344-3.044.698-4.836.698h-.728c-.992 0-3.606-.5-4.5-.741-.649-.18-3.701-1.297-3.946-1.297-.12 0-.921 2.038-2.694 2.038-1.905 0-3.204-1.338-3.204-3.276 0-1.035.594-1.518.947-2.185-.92 0-2.84 1.098-2.84 1.894v.072c0 .664.18.821.291 1.31-.597-.316-1.747-.901-1.747-1.747v-.437l-1.532.368c.073-.902.583-1.352.944-1.893l.008-.076-1.968-.197c.218-.277 1.437-1.224 1.888-1.33l.883-2.884-.082-.024c.468-.248.901-.27 1.137-.828.09-.208.392-1.281.392-1.502v-.218c0-.457-1.123-.397-1.602-.437-.541.285-.419 1.456-1.456 1.456h-.436c-.197 0-.2-.035-.36-.073.09 1.082.775 1.713 1.238 2.403-.632 1.2-1.894 2.172-1.894 4.147v.36c0 .658.254 1.077.291 1.533h.729c1.975 0 3.908 3.859 8.01 3.859h.144c.997 0 1.904-.437 2.476-.437.03 0 1.473 1.152 1.69 1.296.684.458 1.22.69 2 1.057 1.314.62 3.083 1.07 4.975 1.07h1.671c1.698 0 3.749-.541 4.995-1.049.514-.209 1.532-.747 1.934-1.051.174-.132 1.725-1.323 1.735-1.323.48 0 1.339.437 2.403.437h.656c3.271 0 5.71-3.859 7.573-3.859h.728c.034-.404.291-1.021.291-1.457 0-1.551-1.128-3.952-1.966-4.514.509-.758 1.284-1.548 1.31-2.767-1.691-.037-1.25-1.098-1.892-1.532l-1.453.185c-.09.09-.15.09-.15.252v.36c0 .128.342 1.263.412 1.41a1.199 1.199 0 0 0 1.046.703l.862 3.134-.146.21.083.296Z" clip-rule="evenodd"/>
  <path fill="#111" fill-rule="evenodd" d="m29.669 31.797.078.025-.034.434-.253-.09.209-.37v.001Zm-.36-.233.035.255-.255-.036.22-.22Zm.921-.1c.302.02.27.036.278.36l-.36-.144.082-.215v-.001Zm-.304.067h-.361c-.076-.113-.096-.218-.291-.218h-.145c-.164 0-.16.058-.308.148l.09.435h-.513c.062.126.079.365.219.343h.655l.005.12-.82.126.09.368.872-.153c-.038.163-.073.167-.073.36 0 .193.105.216.226.295l.505-1.323.29.082-.5 1.225.291.235.502-1.323.288.08v-.36h-.146v-.36c0-.34-.17-.51-.51-.51-.254-.01-.318.22-.366.427v.003Z" clip-rule="evenodd"/>
  <path fill="silver" fill-rule="evenodd" d="m32.984 33.057.29.146v-.146h-.29Z" clip-rule="evenodd"/>
  <path fill="#FBB658" fill-rule="evenodd" d="m22.135 32.545-.361-.874a1.117 1.117 0 0 0-.51.947v.219c0 .43.53.91.801 1.091-.061-.26-.146-.341-.146-.655V33.2c-.003-.165.154-.525.216-.655Z" clip-rule="evenodd"/>
  <path fill="#E0E1E0" fill-rule="evenodd" d="M39.828 33.494h.802c-.09-.124-.308-.292-.51-.292-.203 0-.251.123-.292.292Z" clip-rule="evenodd"/>
  <path fill="#EEEDEE" fill-rule="evenodd" d="M32.692 33.64h.361c-.078-.293-.02-.212-.36-.219v.218ZM47.182 33.712h.073l-.223-.74-.432.158c.114.49.224.292.437.582h.145Z" clip-rule="evenodd"/>
  <path fill="#FCBA68" fill-rule="evenodd" d="M56.066 32.693c.019.228.072.258.072.509v.219c0 .196-.034.2-.072.36.291-.154.727-.526.727-.946v-.51c0-.392-.45-.8-.727-.947l.023.655.205.286-.228.373Z" clip-rule="evenodd"/>
  <path fill="#E0E0DE" fill-rule="evenodd" d="m35.138 33.804.03-.311-.23.009.2.302Z" clip-rule="evenodd"/>
  <path fill="#111" fill-rule="evenodd" d="M44.634 34.003a.172.172 0 0 1-.146-.146c0-.167.31-.213.51-.218-.053.08-.263.36-.36.36l-.004.004Zm-1.238-1.164h.36c.238 0 .24.036.36.145-.162.038-.166.073-.36.073h-.36v-.218Zm4.818-.43-.162-.303.215-.083c.051.214.15.31.15.451 0 .173-.243.275-.436.291l.23-.356h.003Zm-1.032 1.303h-.145c-.213-.29-.323-.09-.437-.582l.432-.159.223.741.401.133-.474-1.443c.321-.027.32-.145.51-.145.164 0-.034-.028.16.085l-.306.351c.13.193.26.36.583.36.27 0 .352-.112.495-.214l.09.361h.219c.278 0 .026-.022.239.064l-.605-1.379.26-.114-.331-.245c-.09.05-.078.073-.218.073-.367 0-.166-.437-.729-.437h-.073c-.278 0-.026-.023-.23.083l.234.29.276-.07.242.27.008.077-3.733 1.099c-.038-.34-.44-.437-.802-.437-.226 0-.436.23-.436.51v.218h-.291c.193.721.386-.257.526.784.063.458.016.78.514.887l-.238-1.442 1.307-.24.021.102-1.111.204c.067.253.56.727.874.727h.072c.197 0 .201-.034.355-.07l.083.288.392-.007-.316-1.363 1.668-.527v.146l-.048-.073-.657.434.05.076c-.228 0-.801.104-.801.291s.328.36.36.36c.26 0 .194-.16.292-.36h.291l-.05.061.7.52.154-.288Z" clip-rule="evenodd"/>
  <path fill="#E0E0DE" fill-rule="evenodd" d="M44.634 34.003c.101 0 .31-.285.36-.36-.2.004-.509.05-.509.218a.172.172 0 0 0 .15.142ZM34.643 34.073l.331-.012-.24-.349-.09.36Z" clip-rule="evenodd"/>
  <path fill="#D0D1D1" fill-rule="evenodd" d="M35.46 33.93c0 .279.022.027-.074.218 0 0 .136.073.146.073.102 0 .146-.099.146-.218v-.437h-.219v.364Z" clip-rule="evenodd"/>
  <path fill="#E0E1E0" fill-rule="evenodd" d="M39.392 34.221h-.656v.073h.51l.141.002.12.293.103.288v-1.02h-.218v.364Z" clip-rule="evenodd"/>
  <path fill="#12120F" fill-rule="evenodd" d="M35.678 34.003c0 .12-.044.218-.146.218-.01 0-.144-.07-.146-.073.096-.19.073.06.073-.218v-.36h.22v.437-.004Zm-.944-.286.24.348-.33.012.09-.36Zm-1.677-.074h-.361v-.218c.344.008.286-.074.36.218Zm1.88-.137.201.302.03-.31-.23.008Zm-1.953-.445h.29v.145l-.29-.145Zm0 0-.51.073c-.038.163-.073.167-.073.36 0 .374.243.482.583.51v.218c-.265.006-.437.033-.437.291 0 .18.18.27.292.438h.509c-.017-.206 0-.291-.218-.291h-.22v-.162l.506.095-.09-.02.167-.787h.291c-.038.07-.291.433-.291.436 0 .163.058.16.145.291.127-.084.36-.235.36-.436v-.219c0-.333-.094-.43-.436-.436l.006-.247.87.173c-.02.228-.072.258-.072.51v.145c0 .206.166.281.292.38l.581-.09c.108.147.167.218.438.218.27 0 .29-.294.29-.583h.09l-.104.961.292.27.16-1.453.343-.047-.348-.379-.084.039.309-.27-.146-.29c-.171.014-.36.065-.36.217 0 .167.024.085.072.291l-.02.095-3.84-.895c.01.559.305.37.653.59v.004Z" clip-rule="evenodd"/>
  <path fill="#B1B0B0" fill-rule="evenodd" d="M38.809 34.804c0 .222.126.248.29.291-.04-.059-.144-.18-.144-.218 0-.163.057-.16.145-.291-.124.033-.291.084-.291.218Z" clip-rule="evenodd"/>
  <path fill="#ECB32B" fill-rule="evenodd" d="m2.604 22.57.018 3.86c0 2.372 1.017 3.395 1.893 4.881.495.842 2.016 3.612 2.04 4.73.204-.233.61-2.286.823-2.817.404-1.013.77-1.575 1.24-2.473.593-1.13 1.866-4 2.164-5.266-.172.126-1.147 1.329-1.474 1.656-.601.6-.946.962-1.409 1.722-.791 1.299-1.34 2.885-1.34 4.922h-.072c0-2.031-.918-4.903-1.553-6.384-.586-1.368-2.164-4.057-2.164-5.776h-.065l-.1.945ZM72.52 33.785h-.072c0-2.264-.487-3.619-1.353-5.054-.45-.743-.843-1.184-1.431-1.772-.283-.284-1.418-1.623-1.511-1.693.18.764 1.803 4.674 2.2 5.3.769 1.22 1.876 3.703 2.023 5.476.121-.173.416-1.34.56-1.697a19.17 19.17 0 0 1 .703-1.555c.52-1.04 1.072-1.893 1.664-2.85 1.54-2.48 1.082-4.198 1.082-7.805v-.728h-.15c0 1.721-1.495 4.579-2.137 5.872-.623 1.256-1.577 4.691-1.577 6.506Z" clip-rule="evenodd"/>
  <path fill="#111" fill-rule="evenodd" d="M38.809 34.804c0-.133.167-.185.29-.218-.09.131-.144.128-.144.291 0 .039.104.16.145.218-.165-.043-.291-.07-.291-.291Zm.582-.947v.361h-.655v.073h.651l.12.293.103.288v-1.015h-.22Zm.728-.655c.203 0 .42.168.51.292h-.8c.04-.169.076-.292.29-.292Zm-.582.073v.219h-1.383l-.06.069.433.37.074-.067-.163.212.098.871-.062.074.98.508.081-.279-.224-.043.015-.075.648.18c0-1.284-.36-1.532.8-1.532v.072c-.288 0-.582.01-.582.291v.219c0 .311.378.436.722.44l.228.45.277-.085-.207-.73c-.09-.048-.24-.145-.36-.145s-.118.11-.175.24l-.19-.313c.457-.22.641.19.656-.437h.29c-.017-.217-.051-.36-.29-.36h-.438v-.291c-.293-.069-.36-.22-.655-.22h-.145a.413.413 0 0 0-.368.362Z" clip-rule="evenodd"/>
  <path fill="#FDFEFB" fill-rule="evenodd" d="M40.848 34.294c.123 0 .27.098.36.146l.209.732-.278.085-.228-.45c-.345 0-.721-.13-.721-.44v-.22c0-.28.294-.29.582-.29v-.073c-1.158 0-.8.245-.8 1.533l-.649-.18-.015.074.224.044-.08.278-.98-.507.061-.074-.095-.874.163-.21-.074.065-.433-.37.06-.068h1.383v-.22a.414.414 0 0 1 .36-.36h.146c.292 0 .36.15.655.22v.29h.437c.24 0 .27.147.291.361h-.29c-.015.631-.199.217-.656.436l.19.313c.057-.129.042-.24.174-.24h.004Zm-8.01.656c-.109-.163-.29-.256-.29-.437 0-.26.171-.285.436-.292v-.218c-.34-.028-.583-.136-.583-.51 0-.197.035-.2.073-.36l.51-.073c-.347-.22-.643-.03-.656-.582l3.839.895.02-.095c-.048-.206-.072-.124-.072-.29 0-.153.193-.205.36-.219l.146.29-.309.27.084-.038.349.379-.343.047-.16 1.45-.292-.271.111-.964h-.09c0 .288-.01.582-.29.582-.281 0-.33-.07-.438-.218l-.582.09c-.125-.098-.292-.174-.292-.38v-.145c0-.25.053-.281.073-.51l-.87-.175-.006.248c.343.007.437.103.437.436v.218c0 .201-.237.352-.36.436-.09-.131-.145-.128-.145-.29 0 0 .253-.367.29-.437h-.29l-.167.788.09.019-.506-.095v.161h.22c.22 0 .2.086.217.292l-.514-.002Zm-2.546-3.86c.34 0 .509.17.509.51v.361h.146v.36l-.288-.08-.502 1.323-.29-.235.498-1.225-.289-.082-.506 1.33c-.12-.08-.226-.1-.226-.295 0-.195.035-.201.073-.361l-.873.153-.09-.367.82-.126-.004-.12h-.655c-.14.021-.157-.218-.218-.344h.509l-.09-.435c.147-.09.144-.148.307-.148h.145c.195 0 .216.105.291.219h.361c.049-.208.113-.438.36-.438h.012Zm16.965 2.622h-.073l-.15.29-.7-.52.05-.061h-.292c-.098.204-.032.36-.291.36-.036 0-.36-.186-.36-.36s.572-.287.8-.291l-.05-.076.657-.434.048.072v-.147l-1.67.523.315 1.363-.392.007-.082-.288c-.154.035-.159.07-.355.07h-.072c-.315 0-.807-.475-.875-.728l1.112-.204-.022-.102-1.31.242.237 1.443c-.498-.108-.45-.43-.514-.888-.14-1.04-.333-.06-.526-.784h.291v-.218c0-.28.21-.51.436-.51.361 0 .764.097.802.437l3.733-1.1-.008-.076-.242-.27-.276.07-.238-.285c.205-.106-.046-.084.231-.084h.073c.563 0 .361.438.729.438.14 0 .13-.024.218-.073l.33.245-.259.114.607 1.38c-.213-.086.039-.064-.239-.064h-.22l-.09-.36c-.142.1-.226.214-.494.214-.324 0-.45-.172-.583-.361l.305-.352c-.193-.112.006-.084-.158-.084-.192 0-.19.118-.51.145l.473 1.442-.4-.132.004-.003ZM32.838 34.95c.69.437 5.1 1.165 6.48 1.165 2.37 0 3.864-.506 5.68-1.02.979-.278 4.264-1.601 5.026-1.601.857 0 1.82.43 1.82 1.238v.145c0 .445-.506.8-.947.8-.607 0-1.262-.417-1.31-1.018.327.219.568.509 1.092.509h.073c.239 0 .582-.222.582-.36 0-.476-.729-.728-1.237-.728-.509 0-.935.26-1.311.291.166.721 1.18 1.747 2.111 1.747h.073a2.544 2.544 0 0 0 2.549-2.548v-.222c0-1.565-1.73-2.767-3.495-2.767h-.361c-.902 0-3.667.89-4.508 1.172-1.05.355-3.49.792-4.887.792h-1.533c-1.828 0-4.038-.39-5.563-.772-1.483-.373-3.456-1.195-5.139-1.195-1.67 0-3.203 1.216-3.203 2.84v.437c0 1.097 1.144 2.184 2.403 2.184h.073c1.04 0 2.117-.882 2.184-1.674-.465-.039-.818-.291-1.384-.291h-.36c-.331 0-.728.345-.728.655 0 .142.343.36.582.36.504 0 .736-.392 1.02-.582-.042.505-.56 1.165-1.093 1.165h-.073c-.561 0-1.091-.445-1.091-.946v-.146c0-.73.572-1.091 1.31-1.091h.146c.78 0 1.994.403 2.65.63.487.17 1.98.798 2.37.83Z" clip-rule="evenodd"/>
  <path fill="#EEEDEE" fill-rule="evenodd" d="m33.607 37.691.25.026-.028-.313-.222.287Z" clip-rule="evenodd"/>
  <path fill="#1F2020" fill-rule="evenodd" d="M36.916 38.372c0-.245.128-.51.36-.51h.147c.236 0 .055.063.36.146-.054-.648-1.237-.39-1.237.51 0 .368.394.582.8.582h.291l.069-.22c-.159.04-.163.075-.36.075h-.074a.412.412 0 0 1-.36-.361l.004-.222Z" clip-rule="evenodd"/>
  <path fill="#FCF0F1" fill-rule="evenodd" d="M44.634 36.988c.005.24.29 1.02.437 1.02.206 0 .36-.252.36-.437 0-.302-.204-.656-.51-.656-.014 0-.264.064-.287.073Z" clip-rule="evenodd"/>
  <path fill="#121212" fill-rule="evenodd" d="M45.438 37.57c0 .187-.158.438-.361.438-.146 0-.432-.78-.436-1.02.022-.009.27-.073.29-.073.306 0 .51.354.51.656h-.004Zm-.683.71c.413-.09.974-.292.974-.854 0-.25-.189-.656-.438-.656h-.218c-.36 0-.63.163-.859.285l.541 1.224Z" clip-rule="evenodd"/>
  <path fill="#1F2020" fill-rule="evenodd" d="m33.83 37.404.027.313-.25-.025.223-.288Zm-.397.394c.226.012.498.034.498.283v.291l.288.081v-1.465l-.156-.04L33.048 38l.18.1.205-.302Z" clip-rule="evenodd"/>
  <path fill="#E0E0DE" fill-rule="evenodd" d="m41.415 38.514.334-.012-.244-.348-.09.36Z" clip-rule="evenodd"/>
  <path fill="#1F2020" fill-rule="evenodd" d="M35.168 38.225a1.712 1.712 0 0 1 .218-.873l-.36-.09c-.036.39-.223.61-.223 1.034 0 .304.353.509.655.509.522 0 .722-.834.729-1.31h-.216c0 .41-.155 1.165-.51 1.165a.278.278 0 0 1-.291-.291l-.002-.144Z" clip-rule="evenodd"/>
  <path fill="#121212" fill-rule="evenodd" d="m41.505 38.154.244.348-.334.012.09-.36Zm-.13.513h.492l.082.289h.428l-.764-1.333h-.119l-.384 1.47.18.008.085-.434ZM44.051 38.517c-.029-.354-.123-1.226-.463-1.304l.199.862-1.144-.656-.039.078.306 1.307.196.005-.222-.873 1.127.65.04-.069Z" clip-rule="evenodd"/>
  <path fill="#EBB228" fill-rule="evenodd" d="m47.692 38.809.51-.073v-1.019L46.6 38.809h1.092Z" clip-rule="evenodd"/>
  <path fill="#202020" fill-rule="evenodd" d="M39.828 39.173h.802v-.218h-.438v-.218l-.084-.946-.28-.001v1.383Z" clip-rule="evenodd"/>
  <path fill="#EBB228" fill-rule="evenodd" d="m30.726 39.173 1.755.061-1.682-1.008-.073.947Z" clip-rule="evenodd"/>
  <path fill="#121212" fill-rule="evenodd" d="M38.882 38.372c0-.125.353-.27.437-.582-.444.037-.36.336-.729.582v-.582h-.29v1.383h.29v-.51l.366.509h.361c-.094-.18-.435-.635-.435-.8Z" clip-rule="evenodd"/>
  <path fill="#ECB32B" fill-rule="evenodd" d="m8.518 41.721-.072-1.092v-1.533c0-1.77.798-3.365 1.269-4.774.403-1.206.77-3.782.77-5.347-.133.153-.677 1.729-.823 2.09-.31.768-.566 1.348-.982 2.003-.908 1.435-1.468 2.119-1.468 4.43-.09-.069-3.108-4.68-3.58-5.303-.502-.66-1.582-1.883-1.91-2.534-.27-.535-.42-1.027-.6-1.657-.114-.393-.278-1.682-.394-1.864 0 4.997.386 6.186 2.233 9.417.812 1.412 1.753 1.969 2.81 3.015 1.058 1.047 1.796 2.054 2.747 3.15Z" clip-rule="evenodd"/>
  <path fill="#F57E20" fill-rule="evenodd" d="M48.202 37.717v1.02l-.51.072h.51v3.557l-.143.084c.762-.064 2.254-.396 2.184-1.166l-.073.007-.145-2.191v-1.533h.218l-1.542-.38-.5.53Z" clip-rule="evenodd"/>
  <path fill="#EDA927" fill-rule="evenodd" d="m40.13 40.63-.464.203 1.835.52 1.609-1.122-2.98.399Z" clip-rule="evenodd"/>
  <path fill="#ECB32B" fill-rule="evenodd" d="M71.865 37.28c0-1.972-.726-3.022-1.484-4.267-.429-.704-.632-1.043-.969-1.872-.154-.383-.671-1.915-.823-2.089 0 1.367.307 4.196.684 5.139.423 1.058 1.282 3.227 1.282 4.543l.017 1.822-.09 1.09c.864-.991 1.576-1.976 2.53-2.93.992-.992 1.862-1.533 2.713-2.747 1.203-1.718 2.826-5.225 2.63-8.303l-.083-1.532H78.2c0 1.101-.536 2.675-.92 3.447-.346.692-1.353 1.793-1.877 2.494-.484.66-3.38 5.09-3.537 5.204Z" clip-rule="evenodd"/>
  <path fill="#ECB228" fill-rule="evenodd" d="m48.052 42.45.142-.084V39.9c-1.532 0-2.016.097-3.19.45-.526.159-2.153.938-2.416 1.297.613.014 1.898.451 2.554.577 1.031.203 1.671.225 2.91.225Z" clip-rule="evenodd"/>
  <path fill="#F57E20" fill-rule="evenodd" d="m28.979 37.352-.073 2.185.073 1.456c-.106.158-.218.242-.218.51 0 .778 1.19 1.092 1.966 1.092v-2.176l.582-.082h-.582v-1.164l.072-.947-1.313-1.033-.507.16Z" clip-rule="evenodd"/>
  <path fill="#EDB127" fill-rule="evenodd" d="M30.727 42.595c1.14.547 5.558-1.066 5.897-1.525l-5.315-.733-.582.081v2.177Z" clip-rule="evenodd"/>
  <path fill="#130E0B" fill-rule="evenodd" d="m33.622 44.253.635.563.671-.639-.075-.022-.649-.485-.582.583Z" clip-rule="evenodd"/>
  <path fill="#ED2024" fill-rule="evenodd" d="m43.11 40.231-1.61 1.122-1.832-.52.463-.203 2.98-.399h-.001Zm16.596-16.422.289.083v.209c0 .286-.156.158-.36.29-.028 1.22-.803 2.01-1.312 2.768.839.561 1.967 2.962 1.967 4.514 0 .435-.258 1.053-.291 1.457h-.729c-1.863 0-4.3 3.858-7.573 3.858h-.655c-1.065 0-1.923-.436-2.404-.436-.01 0-1.56 1.19-1.734 1.322-.399.304-1.42.843-1.935 1.052-1.246.505-3.297 1.048-4.995 1.048H38.3c-1.893 0-3.66-.45-4.974-1.07-.78-.366-1.317-.599-2-1.057-.217-.144-1.66-1.295-1.69-1.295-.572 0-1.48.436-2.476.436h-.145c-4.101 0-6.034-3.858-8.01-3.858h-.728c-.038-.451-.291-.872-.291-1.533v-.36c0-1.984 1.262-2.951 1.893-4.148-.462-.69-1.148-1.318-1.238-2.402l-.073-.36c0-1.335.211-2.065.408-3.234.239-1.424.06-1.888.03-3.245 2.192-.18 4.121-2.985 6.334-2.985h1.383l1.235.168c.642-2.765 2.23-5.04 4.492-6.164 1.158-.575 2.33-1.201 3.496-1.819.541-.285 1.263-.642 1.713-.983.48-.361 1.008-.886 1.443-1.178.54.36.928.812 1.5 1.196.554.377 1.139.657 1.705.991 1.106.646 2.379 1.159 3.496 1.82 2.312 1.367 3.817 3.205 4.512 6.19l1.377-.257 1.172.04c2.206 0 4.5 2.984 6.407 2.984l-.174 1.599.029.44.582 3.932v-.012Zm-7.354-12.16c-1.254 0-1.76-.275-2.694.22l1.093 2.562 1.529-.09h.072c.85 0 1.309.277 1.894.29v-.582c0-.997-1.212-1.353-1.456-2.403l-.438.004Zm-26.576 0h-.291c-.232.992-1.384 1.341-1.384 2.331v.655c.463-.01.843-.29 1.533-.29l.875-.018 1.09.102-.069-.042 1.089-2.591c-1.262-.294-1.409-.146-2.84-.146h-.003Zm4.877-2.183-1.676 1.82c-.167.098-.991-.36-1.532-.316l-1.38.171c-.27.037-.63-.323-.801-.437-.384 1.65-1.747 2.169-1.747 3.204v1.02c-1.628.378-2.74 2.475-5.17 2.475.011.514.219.867.219 1.456l.04.952-.55 4.073v.436c0 1.323.631 2.045 1.165 2.84-.93 1.388-1.748 2.22-1.748 4.587 0 .637.233 1.613.437 2.039.228-.019.259-.073.51-.073h.36c1.214 0 2.572 1.468 3.35 2.038.646.475 2.646 1.82 3.64 1.82l1.462.04 1.742-.258.506-.16 1.32 1.032 1.68 1.008-1.753-.061v1.165h.583l5.314.732c-.339.46-4.756 2.074-5.897 1.525-.775 0-1.966-.314-1.966-1.092 0-.27.113-.352.218-.51l-.073-1.456c-.98.228-1.893.956-1.893 2.184 0 .992 1.207 1.773 2.038 1.967l2.404.218c1.34 0 2.822-.479 3.786-.874.36-.148 3.197-1.457 3.204-1.457.702 0 1.164.421 1.894.438-.163.61-3.09 1.893-4.296 1.893.121.334.868.582 1.31.582h.73c.483 0 1.062-.623 1.455-.728.045.54.631.873 1.238.873v-.509c0-.645.43-1.352.8-1.602 1.489.347 3.058 1.238 4.952 1.238.707 0 1.292-.018 1.893-.07.737-.065 1.033-.308 1.6-.44.622-.145 1.601-1.1 1.601-1.893v-.51c0-.87-.89-1.581-1.602-1.747l.147 2.191.073-.007c.071.77-1.422 1.102-2.184 1.166-1.242 0-1.883-.022-2.907-.225-.655-.13-1.94-.563-2.554-.577.263-.36 1.893-1.138 2.417-1.296 1.172-.353 1.659-.45 3.19-.45v-1.093H46.6l1.602-1.091.496-.526 1.542.38.656.073h.873c3.365 0 5.841-3.932 7.864-3.932h.146c.204-.002.404.048.583.145.253-.529.436-1.325.436-2.111V31.6c0-1.128-.142-1.689-.486-2.5a6.549 6.549 0 0 0-.547-.982c-.084-.128-.641-.841-.641-.887 0-.14 1.165-1.706 1.165-2.767l.046-.59-.631-4.143-.008-.656.226-1.674c-1.252-.028-2.019-.52-2.81-1.048-.792-.528-1.593-.992-2.379-1.502l.09-1.018c.065-.654-.707-1.15-.961-1.442-.443-.51-.61-.93-.787-1.69-.317.085-.46.505-.876.45L51.042 11l-.221-.017-.799.09-.585.286-1.162-1.305c-.283-.19-.672-.57-1-.82-.393-.302-.721-.474-1.155-.738-.828-.504-1.568-.887-2.457-1.33-.77-.382-1.687-.871-2.394-1.32a9.867 9.867 0 0 1-1.096-.796c-.33-.271-.721-.707-1-.894-.626.418-1.112 1.082-1.893 1.533-.739.424-1.38.864-2.21 1.277-.79.394-1.49.75-2.28 1.142-.838.415-1.452.998-2.137 1.359Z" clip-rule="evenodd"/>
  <path fill="#ECB32B" fill-rule="evenodd" d="M0 32.839c.09.135.47 2.04.61 2.448.305.902.54 1.43.89 2.241.565 1.334 1.67 2.607 2.63 3.557.806.797 2.499 2.152 3.517 2.675.858.442 3.279 1.999 4.078 2.184-.154-.656-.656-1.522-.656-2.402l-.007-1.311.297-3.932.048-1.098-.557-4.29c-.173.27-.704 2.823-.925 3.444-.388 1.089-.895 2.116-.895 3.546v.073c0 .851.247 1.611.423 2.271.127.478.646 1.747.669 2.025-.389-.26-1.97-2.297-2.53-2.858-.49-.49-.855-.853-1.384-1.31-.499-.43-1.082-.759-1.566-1.201-.975-.887-1.816-1.782-2.504-2.957-.2-.333-2.061-3.268-2.138-3.325v.22ZM68.807 44.342c.14-.597.562-1.381.745-2.095.197-.768.42-1.498.42-2.492v-.145c0-1.335-.546-2.344-.901-3.395-.216-.64-.722-3.06-.917-3.377l-.512 4.441-.015 1.313.306 3.712v1.164c0 1.037-.49 1.694-.656 2.403.584-.135 3.42-1.798 4.076-2.186 1.172-.693 2.615-1.762 3.552-2.71 1.129-1.136 1.899-2.083 2.663-3.598.425-.84 1.432-3.762 1.432-4.903-.288.333-.73 1.244-1.019 1.675-.372.554-.698 1.12-1.081 1.689-.858 1.287-1.418 1.965-2.544 2.99-.486.442-1.068.771-1.566 1.201-.54.467-.918.846-1.42 1.346-.608.61-2.132 2.653-2.563 2.967Z" clip-rule="evenodd"/>
  <path fill="#8D6C29" fill-rule="evenodd" d="m40.484 45.58.229.071-.083-.216v.145h-.146Z" clip-rule="evenodd"/>
  <path fill="#130E0B" fill-rule="evenodd" d="M43.76 45.944h.291c.74 0 1.384 1.082 1.384 1.893 0 .631-.42 1.311-1.02 1.311h-.218c-1.502 0-2.043-3.204-.437-3.204Zm-1.747 1.533v.36c0 .657.871 1.675 1.532 1.675h.8c.826 0 1.822-.901 1.822-1.748v-.51c0-.876-.941-1.746-1.821-1.746h-.072c-1.211 0-2.262.776-2.262 1.965v.004Z" clip-rule="evenodd"/>
  <path fill="#EBB228" fill-rule="evenodd" d="M43.76 45.944c-1.606 0-1.065 3.204.437 3.204h.218c.6 0 1.02-.68 1.02-1.31 0-.812-.644-1.894-1.384-1.894h-.291Z" clip-rule="evenodd"/>
  <path fill="#010101" fill-rule="evenodd" d="m34.003 49.44.656.29v-3.713c0-.208-.485-.42-.656-.51v3.932Z" clip-rule="evenodd"/>
  <path fill="#130E0B" fill-rule="evenodd" d="m40.63 45.438.083.216-.23-.071c-.702 0-1.674.23-1.674.801v.218c0 .979 2.184 1.43 2.184 2.112v.219c0 .235-.264.36-.51.36h-.29c-.424 0-.791-.371-.892-.76l-.71.397a1.57 1.57 0 0 0 1.383.728c.846 0 1.674-.327 1.674-1.165 0-1.101-2.33-1.37-2.33-2.254a.281.281 0 0 1 .179-.272.279.279 0 0 1 .113-.02h.073c.963 0 1.172.78 1.601 1.093v-1.602l5.127-.023-.394-.56H32.765c.103.155.367.583.582.583h4.223v.218c-.626-.3-1.82.188-1.82.655v.51c0 .622 2.184 1.273 2.184 1.966 0 .34-.17.51-.51.51h-.36c-.578 0-.699-.547-.941-.722l-.588.282c.044.528.79.8 1.384.8.69 0 1.601-.317 1.601-.946v-.291c0-1.008-2.254-1.275-2.254-2.185v-.072c0-.168.05-.219.218-.219h.219c.701 0 1.12.773 1.442 1.019l.085-1.092v-.434h2.4Z" clip-rule="evenodd"/>
  <path fill="#ECB32B" fill-rule="evenodd" d="M1.875 40.429c-.37-.361-1.122-1.515-1.366-1.693.101.783 2.081 4.028 2.549 4.733 1.044 1.573 2.02 2.614 3.516 3.766 1.193.917 3.358 1.76 4.976 2.305.912.307 2.024.468 2.868.772.446.16 2.39.922 2.694.948-.25-.342-.705-.621-1.036-1.15a6.427 6.427 0 0 1-.712-1.471 29.48 29.48 0 0 1-.857-3.516c-.219-1.314-.558-2.268-.991-3.375-.236-.6-1.006-2.687-1.352-2.942l-.264 3.277.04 1.313c0 1.054.721 2.504 1.116 3.253.247.47 1.713 2.534 1.724 2.572-1.227-.822-2.423-1.657-3.685-2.505-1.236-.83-2.603-1.522-3.936-2.254-1.237-.678-2.698-1.59-3.72-2.468-.665-.572-.978-.99-1.564-1.565ZM61.89 51.187c.386-.032 2.154-.777 2.753-.96.892-.27 1.925-.519 2.843-.8 1.867-.569 3.49-1.316 4.976-2.304 1.39-.92 2.614-2.417 3.54-3.815.58-.875 2.33-3.724 2.563-4.718-.261.19-1.038 1.363-1.403 1.73-.558.56-.868 1.017-1.524 1.532-1.06.836-2.467 1.87-3.696 2.49a41.815 41.815 0 0 0-3.946 2.243c-.66.432-1.251.812-1.879 1.252-.486.341-1.337.981-1.821 1.237.015-.056 1.519-2.236 1.796-2.794.41-.824 1.134-2.291 1.044-3.544l-.242-4.003c-.952 1.042-2.035 4.65-2.384 6.405a30.888 30.888 0 0 1-.878 3.491 6.415 6.415 0 0 1-.732 1.452c-.351.533-.761.766-1.01 1.106Z" clip-rule="evenodd"/>
  <path fill="#EBB228" fill-rule="evenodd" d="M34.003 45.508c.17.09.656.301.656.51v3.713l-.656-.291v-3.932Zm8.009 1.965c0-1.189 1.05-1.965 2.254-1.965h.072c.88 0 1.82.87 1.82 1.747v.51c0 .843-.99 1.748-1.82 1.748h-.794c-.657 0-1.532-1.02-1.532-1.676v-.364Zm-1.533-1.893c-.702 0-1.675.23-1.675.802v.218c0 .978 2.184 1.429 2.184 2.111v.22c0 .234-.264.36-.509.36h-.291c-.424 0-.79-.372-.892-.76l-.71.396a1.57 1.57 0 0 0 1.384.728c.845 0 1.674-.326 1.674-1.165 0-1.1-2.33-1.37-2.33-2.254a.281.281 0 0 1 .178-.272.281.281 0 0 1 .114-.019h.072c.963 0 1.172.779 1.602 1.093v-1.6l5.127-.023-.394-.56H32.76c.104.155.367.583.583.583h4.222v.218c-.625-.3-1.82.188-1.82.655v.51c0 .622 2.185 1.273 2.185 1.966 0 .34-.17.51-.51.51h-.36c-.578 0-.7-.547-.942-.722l-.587.282c.044.528.79.8 1.383.8.691 0 1.602-.317 1.602-.946v-.291c0-1.008-2.254-1.275-2.254-2.185v-.072c0-.168.05-.219.218-.219h.218c.702 0 1.12.773 1.443 1.019l.084-1.092v-.433h2.404v.145l-.15-.003Zm-6.275-1.91.65.485.074.022-.67.64-.63-.564.582-.583h-.006Zm-2.75.235-.582.073c.205 2.463 1.296 4.087 2.64 5.442 1.09 1.1 3.715 2.276 5.879 2.276h1.02c4.07 0 7.79-3.877 7.79-7.86l-1.674-.077c-1.894 0-3.463-.89-4.952-1.238-.37.248-.8.957-.8 1.602v.51c-.605 0-1.193-.337-1.238-.874-.393.105-.972.728-1.456.728h-.728c-.443 0-1.19-.248-1.311-.582 1.205 0 4.133-1.283 4.296-1.893-.729-.017-1.191-.438-1.894-.438-.007 0-2.841 1.309-3.204 1.457-.964.396-2.446.874-3.785.874Z" clip-rule="evenodd"/>
  <path fill="#F57F20" fill-rule="evenodd" d="m46.526 43.76 1.676.077c0 3.987-3.721 7.86-7.791 7.86h-1.02c-2.164 0-4.79-1.172-5.88-2.276-1.343-1.352-2.433-2.98-2.639-5.442l.583-.073-2.403-.218c0 2.885 1.677 5.5 3.15 6.971 1.416 1.42 4.53 2.858 7.335 2.858h.581c5.563 0 9.903-4.688 9.903-10.267-.566.132-.862.376-1.6.44-.603.052-1.187.07-1.895.07Z" clip-rule="evenodd"/>
  <path fill="#ECB32B" fill-rule="evenodd" d="M57.74 52.57c.156-.136 1.983-.991 2.331-1.163.838-.424 1.247-.902 1.837-1.586.721-.833.653-1.318 1.01-2.412.16-.493.756-2.19.793-2.63-.464.31-1.687 1.797-2.203 2.312-.771.77-1.33 1.653-2.038 2.476-.766.89-1.209 1.612-2.179 2.336-.45.334-.826.631-1.352.91-.231.12-1.401.67-1.48.776l6.553-.118.219.046c3.129 0 6.82-.463 8.908-1.505.974-.486 2.238-1.523 2.975-2.263.38-.38 2.206-2.464 2.311-2.858-.606.406-1.03.817-1.749 1.237-.61.356-1.337.576-2.014.901-1.334.631-2.72 1.193-4.262 1.563-1.61.387-3.085.68-4.786 1.039-.949.198-4.06.94-4.874.94ZM17.49 47.164c-.533-.528-1.704-1.978-2.202-2.312.072.568.606 2.06.812 2.686.313.968.36 1.691 1.028 2.394.722.759.832 1.034 1.852 1.57.58.305 1.851.842 2.281 1.142-.901 0-3.803-.704-4.909-.916-1.527-.294-3.418-.62-4.786-1.039-1.667-.511-2.765-.892-4.237-1.59-.695-.33-1.353-.561-2.016-.896-.697-.354-1.091-.776-1.674-1.166.119.444 1.803 2.331 2.2 2.75.742.78 1.797 1.554 2.738 2.142 1.541.964 5.556 1.66 8.097 1.66h.437l7.427.035c-.058-.012-1.296-.647-1.481-.739-.492-.242-.928-.597-1.347-.91-.906-.676-1.46-1.478-2.176-2.338-.692-.836-1.272-1.712-2.044-2.473Z" clip-rule="evenodd"/>
  <path fill="#ECB228" fill-rule="evenodd" d="M30.652 9.466c.684-.36 1.298-.943 2.136-1.359.79-.392 1.491-.747 2.28-1.14.83-.414 1.471-.854 2.212-1.285.78-.45 1.262-1.112 1.894-1.532.28.186.67.619 1 .893.346.29.712.556 1.096.796.706.45 1.622.938 2.393 1.32.89.443 1.63.826 2.458 1.33.433.264.762.436 1.155.737.328.25.72.631 1 .82V4.66h1.747v6.407l.798-.09.221.016 1.162.163c.417.05.56-.37.877-.45.18.759.343 1.18.786 1.69.254.291 1.026.787.962 1.442l-.09 1.018c.785.514 1.582.97 2.378 1.501.796.531 1.559 1.021 2.81 1.049l-.225 1.673.007.656.63 4.143-.045.59c0 1.062-1.165 2.627-1.165 2.767 0 .046.557.76.641.887.209.31.39.638.543.98.343.811.486 1.37.486 2.499v.145c0 .786-.18 1.582-.437 2.111a1.187 1.187 0 0 0-.582-.145h-.146c-2.023 0-4.5 3.932-7.864 3.932h-.874l-.655-.073h-.218v1.532c.712.166 1.602.878 1.602 1.748v.51c0 .793-.98 1.748-1.602 1.893 0 5.58-4.34 10.267-9.903 10.267h-.582c-2.805 0-5.919-1.443-7.336-2.858-1.472-1.476-3.15-4.087-3.15-6.972-.83-.194-2.037-.974-2.037-1.966 0-1.229.912-1.956 1.893-2.184l.073-2.185-1.742.258-1.461-.04c-.992 0-2.995-1.345-3.642-1.82-.777-.57-2.135-2.038-3.349-2.038h-.36c-.251 0-.282.054-.51.073-.204-.426-.437-1.402-.437-2.04 0-2.367.819-3.198 1.748-4.587-.532-.794-1.165-1.516-1.165-2.84v-.436l.55-4.072-.041-.956c0-.588-.208-.942-.218-1.456 2.43 0 3.54-2.097 5.169-2.475v-1.02c0-1.035 1.363-1.554 1.747-3.204.171.115.531.474.802.437l1.379-.171c.54-.048 1.365.415 1.532.316l-.073-6.407h1.742v4.588ZM12.96 27.16v1.747c0 7.412 3.936 14.093 7.663 17.822 2.164 2.163 4.555 3.857 7.457 5.285 2.39 1.172 6.787 2.525 10.292 2.525h1.746c7.741 0 14.254-3.951 18.15-7.844 3.949-3.95 7.698-10.5 7.698-18.367V27.16c0-3.534-1.337-8.03-2.524-10.438-1.516-3.08-3.1-5.27-5.396-7.565-3.972-3.975-10.428-7.623-18.363-7.623H39.1c-7.754 0-14.37 3.703-18.257 7.59C17 12.961 12.96 19.531 12.96 27.16Z" clip-rule="evenodd"/>
  <path fill="#ECB32B" fill-rule="evenodd" d="M42.304 64.438c0-1.154-1.713-3.12-2.254-3.931 2.052-3.063 8.444-4.882 13.758-4.882h.291c2.226 0 4.104 1.31 6.699 1.31h.728c1.984 0 3.606-.674 5.034-1.227.932-.36 3.23-1.803 3.631-2.559-2.456.572-5.027 1.311-8.082 1.311h-2.767l-3.93-.3-1.094.009c-2.789 0-6.401.968-8.565 1.703-1.067.36-2.715 1.066-3.504 1.665-.483.36-1.03.68-1.459 1.09-.301.288-1.045 1.032-1.327 1.22-.323-.216-.948-.875-1.291-1.183-.428-.387-.936-.713-1.432-1.044-1.008-.672-2.068-1.127-3.277-1.602-1.636-.643-5.888-1.704-8.052-1.704h-1.82l-4.367.31-.948-.019a32.171 32.171 0 0 1-5.068-.393c-1.699-.287-2.906-.643-4.398-.992 1.208 1.804 5.627 3.787 8.81 3.787h.874c2.443 0 4.25-1.31 6.7-1.31 5.198 0 11.686 1.817 13.688 4.805-.549.819-2.159 2.71-2.185 3.86.62-.144 1.336-.778 1.603-1.31.18-.36 1.053-1.679 1.09-1.821.35.09 1.058 1.378 1.24 1.747.54 1.104.787.811 1.528 1.456l.146.004Z" clip-rule="evenodd"/>
  <path fill="#ED2024" fill-rule="evenodd" d="M12.96 27.159c0-7.628 4.041-14.198 7.883-18.039 3.886-3.891 10.5-7.587 18.257-7.587h.583c7.934 0 14.391 3.652 18.366 7.627 2.295 2.295 3.877 4.484 5.396 7.564 1.185 2.408 2.524 6.904 2.524 10.438v1.165c0 7.868-3.75 14.418-7.699 18.367-3.896 3.895-10.408 7.844-18.149 7.844h-1.749c-3.505 0-7.902-1.346-10.292-2.525-2.902-1.428-5.294-3.124-7.456-5.285-3.728-3.73-7.663-10.41-7.663-17.822v-1.747Zm-1.6 1.966c0 7.981 4.258 14.926 8.282 18.949 4.057 4.057 11.023 8.137 19.095 8.137h1.381c8.005 0 15-4.042 19.023-8.064 2.147-2.148 4.342-4.95 5.662-7.882 1.225-2.72 2.693-6.872 2.693-10.776v-2.403c0-4.085-1.398-8.475-2.767-11.213-1.657-3.317-3.357-5.56-5.842-8.065C54.617 3.508 47.493 0 38.882 0 30.986 0 23.71 4.057 19.75 8.024c-2.386 2.392-4.077 4.752-5.672 7.943-1.253 2.506-2.719 7.134-2.719 10.828v2.33Z" clip-rule="evenodd"/>
</svg>
